<svg width="1063" height="82" viewBox="0 0 1063 82" fill="none" xmlns="http://www.w3.org/2000/svg">
<rect x="-1" y="1" width="231" height="38" rx="5" transform="matrix(-1 0 0 1 231 0.374512)" fill="white" stroke="#B8FFEC" stroke-width="2"/>
<path d="M30.3196 21.04C31.2263 21.04 31.6796 20.5867 31.6796 19.68V17.6C31.6796 16.6933 31.2263 16.24 30.3196 16.24H25.7596V21.04H30.3196ZM25.7596 22.48V25.76C25.7596 25.92 25.6796 26 25.5196 26H24.4796C24.3196 26 24.2396 25.92 24.2396 25.76V15.04C24.2396 14.88 24.3196 14.8 24.4796 14.8H30.3196C32.2396 14.8 33.1996 15.7333 33.1996 17.6V19.68C33.1996 21.5467 32.2396 22.48 30.3196 22.48H25.7596ZM40.9271 21.2V20.16C40.9271 19.7973 40.8151 19.5093 40.5911 19.296C40.3778 19.072 40.0898 18.96 39.7271 18.96H37.8071C37.4445 18.96 37.1511 19.072 36.9271 19.296C36.7138 19.5093 36.6071 19.7973 36.6071 20.16V21.2H40.9271ZM36.6071 22.48V23.68C36.6071 24.0427 36.7138 24.336 36.9271 24.56C37.1511 24.7733 37.4445 24.88 37.8071 24.88H39.7271C40.0898 24.88 40.3778 24.7733 40.5911 24.56C40.8151 24.336 40.9271 24.0427 40.9271 23.68V23.6C40.9271 23.44 41.0071 23.36 41.1671 23.36H42.0471C42.2071 23.36 42.2871 23.44 42.2871 23.6V23.68C42.2871 24.48 42.0685 25.0933 41.6311 25.52C41.2045 25.9467 40.5698 26.16 39.7271 26.16H37.8071C36.9645 26.16 36.3245 25.9467 35.8871 25.52C35.4605 25.0933 35.2471 24.48 35.2471 23.68V20.16C35.2471 19.36 35.4605 18.7467 35.8871 18.32C36.3245 17.8933 36.9645 17.68 37.8071 17.68H39.7271C40.5698 17.68 41.2045 17.8933 41.6311 18.32C42.0685 18.7467 42.2871 19.36 42.2871 20.16V22.24C42.2871 22.4 42.2071 22.48 42.0471 22.48H36.6071ZM49.1284 24.24L52.0084 18.08C52.0511 17.9947 52.0991 17.936 52.1524 17.904C52.2164 17.8613 52.3284 17.84 52.4884 17.84H53.4484C53.6084 17.84 53.6884 17.92 53.6884 18.08V25.76C53.6884 25.92 53.6084 26 53.4484 26H52.5684C52.4084 26 52.3284 25.92 52.3284 25.76V20.48H52.2484L49.7684 25.76C49.7257 25.8453 49.6724 25.9093 49.6084 25.952C49.5551 25.984 49.4484 26 49.2884 26H48.8884C48.7284 26 48.6164 25.984 48.5524 25.952C48.4991 25.9093 48.4511 25.8453 48.4084 25.76L45.9284 20.48H45.8484V25.76C45.8484 25.92 45.7684 26 45.6084 26H44.7284C44.5684 26 44.4884 25.92 44.4884 25.76V18.08C44.4884 17.92 44.5684 17.84 44.7284 17.84H45.6884C45.8484 17.84 45.9551 17.8613 46.0084 17.904C46.0724 17.936 46.1257 17.9947 46.1684 18.08L49.0484 24.24H49.1284ZM61.654 20.16C61.654 19.7973 61.542 19.5093 61.318 19.296C61.1047 19.072 60.8167 18.96 60.454 18.96H58.454C58.0914 18.96 57.798 19.072 57.574 19.296C57.3607 19.5093 57.254 19.7973 57.254 20.16V23.68C57.254 24.0427 57.3607 24.336 57.574 24.56C57.798 24.7733 58.0914 24.88 58.454 24.88H60.454C60.8167 24.88 61.1047 24.7733 61.318 24.56C61.542 24.336 61.654 24.0427 61.654 23.68V20.16ZM63.014 23.68C63.014 24.48 62.7954 25.0933 62.358 25.52C61.9314 25.9467 61.2967 26.16 60.454 26.16H58.454C57.6114 26.16 56.9714 25.9467 56.534 25.52C56.1074 25.0933 55.894 24.48 55.894 23.68V20.16C55.894 19.36 56.1074 18.7467 56.534 18.32C56.9714 17.8933 57.6114 17.68 58.454 17.68H60.454C61.2967 17.68 61.9314 17.8933 62.358 18.32C62.7954 18.7467 63.014 19.36 63.014 20.16V23.68ZM66.5734 22.48V25.76C66.5734 25.92 66.4934 26 66.3334 26H65.4534C65.2934 26 65.2134 25.92 65.2134 25.76V18.08C65.2134 17.92 65.2934 17.84 65.4534 17.84H66.3334C66.4934 17.84 66.5734 17.92 66.5734 18.08V21.28H70.6534V18.08C70.6534 17.92 70.7334 17.84 70.8934 17.84H71.7734C71.9334 17.84 72.0134 17.92 72.0134 18.08V25.76C72.0134 25.92 71.9334 26 71.7734 26H70.8934C70.7334 26 70.6534 25.92 70.6534 25.76V22.48H66.5734ZM76.2128 26C76.0528 26 75.9728 25.92 75.9728 25.76V19.12H73.4928C73.3328 19.12 73.2528 19.04 73.2528 18.88V18.08C73.2528 17.92 73.3328 17.84 73.4928 17.84H79.8128C79.9728 17.84 80.0528 17.92 80.0528 18.08V18.88C80.0528 19.04 79.9728 19.12 79.8128 19.12H77.3328V25.76C77.3328 25.92 77.2528 26 77.0928 26H76.2128ZM88.0178 17.84C88.1778 17.84 88.2578 17.92 88.2578 18.08V25.76C88.2578 25.92 88.1778 26 88.0178 26H87.1378C86.9778 26 86.8978 25.92 86.8978 25.76V19.92H86.8178L82.9778 25.76C82.9244 25.8453 82.8711 25.9093 82.8178 25.952C82.7644 25.984 82.6578 26 82.4978 26H81.5378C81.3778 26 81.2978 25.92 81.2978 25.76V18.08C81.2978 17.92 81.3778 17.84 81.5378 17.84H82.4178C82.5778 17.84 82.6578 17.92 82.6578 18.08V23.92H82.7378L86.5778 18.08C86.6311 17.9947 86.6844 17.936 86.7378 17.904C86.7911 17.8613 86.8978 17.84 87.0578 17.84H88.0178ZM95.0134 24.72C95.3761 24.72 95.6641 24.6133 95.8774 24.4C96.1014 24.176 96.2134 23.8827 96.2134 23.52V20.16C96.2134 19.7973 96.1014 19.5093 95.8774 19.296C95.6641 19.072 95.3761 18.96 95.0134 18.96H93.6534C93.1734 18.96 92.7734 19.12 92.4534 19.44C92.1334 19.76 91.9734 20.16 91.9734 20.64V24.72H95.0134ZM91.9734 26V28.8C91.9734 28.96 91.8934 29.04 91.7334 29.04H90.8534C90.6934 29.04 90.6134 28.96 90.6134 28.8V18.08C90.6134 17.92 90.6934 17.84 90.8534 17.84H91.7334C91.8934 17.84 91.9734 17.92 91.9734 18.08V18.64H92.0534C92.1387 18.4587 92.2614 18.2987 92.4214 18.16C92.5601 18.0427 92.7414 17.936 92.9654 17.84C93.1894 17.7333 93.4721 17.68 93.8134 17.68H95.0134C95.8561 17.68 96.4907 17.8933 96.9174 18.32C97.3547 18.7467 97.5734 19.36 97.5734 20.16V23.52C97.5734 24.32 97.3547 24.9333 96.9174 25.36C96.4907 25.7867 95.8561 26 95.0134 26H91.9734ZM104.845 18.08C104.877 17.9947 104.919 17.936 104.973 17.904C105.037 17.8613 105.127 17.84 105.245 17.84H106.205C106.375 17.84 106.429 17.92 106.365 18.08L103.245 26C103.021 26.5653 102.802 27.04 102.589 27.424C102.375 27.808 102.146 28.1173 101.901 28.352C101.655 28.5973 101.389 28.7733 101.101 28.88C100.813 28.9867 100.487 29.04 100.125 29.04H99.8048C99.6448 29.04 99.5648 28.96 99.5648 28.8V28C99.5648 27.84 99.6448 27.76 99.8048 27.76H100.125C100.53 27.76 100.861 27.6267 101.117 27.36C101.383 27.0933 101.639 26.64 101.885 26L98.7648 18.08C98.7008 17.92 98.7541 17.84 98.9248 17.84H99.8848C100.002 17.84 100.087 17.8613 100.141 17.904C100.205 17.936 100.253 17.9947 100.285 18.08L102.525 24.08H102.605L104.845 18.08ZM113.233 21.2V20.16C113.233 19.7973 113.121 19.5093 112.897 19.296C112.684 19.072 112.396 18.96 112.033 18.96H110.113C109.751 18.96 109.457 19.072 109.233 19.296C109.02 19.5093 108.913 19.7973 108.913 20.16V21.2H113.233ZM108.913 22.48V23.68C108.913 24.0427 109.02 24.336 109.233 24.56C109.457 24.7733 109.751 24.88 110.113 24.88H112.033C112.396 24.88 112.684 24.7733 112.897 24.56C113.121 24.336 113.233 24.0427 113.233 23.68V23.6C113.233 23.44 113.313 23.36 113.473 23.36H114.353C114.513 23.36 114.593 23.44 114.593 23.6V23.68C114.593 24.48 114.375 25.0933 113.937 25.52C113.511 25.9467 112.876 26.16 112.033 26.16H110.113C109.271 26.16 108.631 25.9467 108.193 25.52C107.767 25.0933 107.553 24.48 107.553 23.68V20.16C107.553 19.36 107.767 18.7467 108.193 18.32C108.631 17.8933 109.271 17.68 110.113 17.68H112.033C112.876 17.68 113.511 17.8933 113.937 18.32C114.375 18.7467 114.593 19.36 114.593 20.16V22.24C114.593 22.4 114.513 22.48 114.353 22.48H108.913ZM121.435 24.24L124.315 18.08C124.357 17.9947 124.405 17.936 124.459 17.904C124.523 17.8613 124.635 17.84 124.795 17.84H125.755C125.915 17.84 125.995 17.92 125.995 18.08V25.76C125.995 25.92 125.915 26 125.755 26H124.875C124.715 26 124.635 25.92 124.635 25.76V20.48H124.555L122.075 25.76C122.032 25.8453 121.979 25.9093 121.915 25.952C121.861 25.984 121.755 26 121.595 26H121.195C121.035 26 120.923 25.984 120.859 25.952C120.805 25.9093 120.757 25.8453 120.715 25.76L118.235 20.48H118.155V25.76C118.155 25.92 118.075 26 117.915 26H117.035C116.875 26 116.795 25.92 116.795 25.76V18.08C116.795 17.92 116.875 17.84 117.035 17.84H117.995C118.155 17.84 118.261 17.8613 118.315 17.904C118.379 17.936 118.432 17.9947 118.475 18.08L121.355 24.24H121.435ZM132.2 24.72C132.52 24.72 132.771 24.6293 132.952 24.448C133.144 24.256 133.24 24 133.24 23.68V22.88C133.24 22.56 133.144 22.3093 132.952 22.128C132.771 21.936 132.52 21.84 132.2 21.84H129.72V24.72H132.2ZM128.6 26C128.44 26 128.36 25.92 128.36 25.76V18.08C128.36 17.92 128.44 17.84 128.6 17.84H129.48C129.64 17.84 129.72 17.92 129.72 18.08V20.56H132.2C133.8 20.56 134.6 21.3333 134.6 22.88V23.68C134.6 25.2267 133.8 26 132.2 26H128.6ZM137.32 25.76C137.32 25.92 137.24 26 137.08 26H136.2C136.04 26 135.96 25.92 135.96 25.76V18.08C135.96 17.92 136.04 17.84 136.2 17.84H137.08C137.24 17.84 137.32 17.92 137.32 18.08V25.76ZM145.196 21.2V20.16C145.196 19.7973 145.084 19.5093 144.86 19.296C144.647 19.072 144.359 18.96 143.996 18.96H142.076C141.713 18.96 141.42 19.072 141.196 19.296C140.983 19.5093 140.876 19.7973 140.876 20.16V21.2H145.196ZM140.876 22.48V23.68C140.876 24.0427 140.983 24.336 141.196 24.56C141.42 24.7733 141.713 24.88 142.076 24.88H143.996C144.359 24.88 144.647 24.7733 144.86 24.56C145.084 24.336 145.196 24.0427 145.196 23.68V23.6C145.196 23.44 145.276 23.36 145.436 23.36H146.316C146.476 23.36 146.556 23.44 146.556 23.6V23.68C146.556 24.48 146.337 25.0933 145.9 25.52C145.473 25.9467 144.839 26.16 143.996 26.16H142.076C141.233 26.16 140.593 25.9467 140.156 25.52C139.729 25.0933 139.516 24.48 139.516 23.68V20.16C139.516 19.36 139.729 18.7467 140.156 18.32C140.593 17.8933 141.233 17.68 142.076 17.68H143.996C144.839 17.68 145.473 17.8933 145.9 18.32C146.337 18.7467 146.556 19.36 146.556 20.16V22.24C146.556 22.4 146.476 22.48 146.316 22.48H140.876ZM152.96 23.68C152.96 24.0427 153.067 24.336 153.28 24.56C153.504 24.7733 153.798 24.88 154.16 24.88H155.92C156.283 24.88 156.571 24.7733 156.784 24.56C157.008 24.336 157.12 24.0427 157.12 23.68V21.6C157.12 21.2373 157.008 20.9493 156.784 20.736C156.571 20.512 156.283 20.4 155.92 20.4H152.96V23.68ZM151.6 18.48C151.6 16.8693 152.454 15.9893 154.16 15.84L156.08 15.68C156.326 15.6587 156.507 15.584 156.624 15.456C156.742 15.328 156.8 15.1627 156.8 14.96V14.88C156.8 14.72 156.88 14.64 157.04 14.64H157.92C158.08 14.64 158.16 14.72 158.16 14.88V14.96C158.16 15.6427 157.995 16.1493 157.664 16.48C157.334 16.8 156.806 16.9867 156.08 17.04L154.16 17.2C153.798 17.232 153.504 17.3653 153.28 17.6C153.067 17.824 152.96 18.1173 152.96 18.48V19.12H155.92C156.763 19.12 157.398 19.3333 157.824 19.76C158.262 20.1867 158.48 20.8 158.48 21.6V23.68C158.48 24.48 158.262 25.0933 157.824 25.52C157.398 25.9467 156.763 26.16 155.92 26.16H154.16C153.318 26.16 152.678 25.9467 152.24 25.52C151.814 25.0933 151.6 24.48 151.6 23.68V18.48ZM164.913 24.72C165.276 24.72 165.564 24.6133 165.777 24.4C166.001 24.176 166.113 23.8827 166.113 23.52V20.16C166.113 19.7973 166.001 19.5093 165.777 19.296C165.564 19.072 165.276 18.96 164.913 18.96H163.553C163.073 18.96 162.673 19.12 162.353 19.44C162.033 19.76 161.873 20.16 161.873 20.64V24.72H164.913ZM161.873 26V28.8C161.873 28.96 161.793 29.04 161.633 29.04H160.753C160.593 29.04 160.513 28.96 160.513 28.8V18.08C160.513 17.92 160.593 17.84 160.753 17.84H161.633C161.793 17.84 161.873 17.92 161.873 18.08V18.64H161.953C162.039 18.4587 162.161 18.2987 162.321 18.16C162.46 18.0427 162.641 17.936 162.865 17.84C163.089 17.7333 163.372 17.68 163.713 17.68H164.913C165.756 17.68 166.391 17.8933 166.817 18.32C167.255 18.7467 167.473 19.36 167.473 20.16V23.52C167.473 24.32 167.255 24.9333 166.817 25.36C166.391 25.7867 165.756 26 164.913 26H161.873ZM175.193 21.2V20.16C175.193 19.7973 175.081 19.5093 174.857 19.296C174.643 19.072 174.355 18.96 173.993 18.96H172.073C171.71 18.96 171.417 19.072 171.193 19.296C170.979 19.5093 170.873 19.7973 170.873 20.16V21.2H175.193ZM170.873 22.48V23.68C170.873 24.0427 170.979 24.336 171.193 24.56C171.417 24.7733 171.71 24.88 172.073 24.88H173.993C174.355 24.88 174.643 24.7733 174.857 24.56C175.081 24.336 175.193 24.0427 175.193 23.68V23.6C175.193 23.44 175.273 23.36 175.433 23.36H176.313C176.473 23.36 176.553 23.44 176.553 23.6V23.68C176.553 24.48 176.334 25.0933 175.897 25.52C175.47 25.9467 174.835 26.16 173.993 26.16H172.073C171.23 26.16 170.59 25.9467 170.153 25.52C169.726 25.0933 169.513 24.48 169.513 23.68V20.16C169.513 19.36 169.726 18.7467 170.153 18.32C170.59 17.8933 171.23 17.68 172.073 17.68H173.993C174.835 17.68 175.47 17.8933 175.897 18.32C176.334 18.7467 176.553 19.36 176.553 20.16V22.24C176.553 22.4 176.473 22.48 176.313 22.48H170.873ZM180.114 22.48V25.76C180.114 25.92 180.034 26 179.874 26H178.994C178.834 26 178.754 25.92 178.754 25.76V18.08C178.754 17.92 178.834 17.84 178.994 17.84H179.874C180.034 17.84 180.114 17.92 180.114 18.08V21.28H184.194V18.08C184.194 17.92 184.274 17.84 184.434 17.84H185.314C185.474 17.84 185.554 17.92 185.554 18.08V25.76C185.554 25.92 185.474 26 185.314 26H184.434C184.274 26 184.194 25.92 184.194 25.76V22.48H180.114ZM192.713 19.12H190.073L188.953 24.72H192.713V19.12ZM194.073 24.72H194.873C195.033 24.72 195.113 24.8 195.113 24.96V27.52C195.113 27.68 195.033 27.76 194.873 27.76H193.993C193.833 27.76 193.753 27.68 193.753 27.52V26H187.993V27.52C187.993 27.68 187.913 27.76 187.753 27.76H186.873C186.713 27.76 186.633 27.68 186.633 27.52V24.96C186.633 24.8 186.713 24.72 186.873 24.72H187.593L188.953 18.08C188.985 17.92 189.119 17.84 189.353 17.84H193.833C193.993 17.84 194.073 17.92 194.073 18.08V24.72ZM200.507 24.72C200.827 24.72 201.077 24.6293 201.259 24.448C201.451 24.256 201.547 24 201.547 23.68V22.88C201.547 22.56 201.451 22.3093 201.259 22.128C201.077 21.936 200.827 21.84 200.507 21.84H198.027V24.72H200.507ZM196.907 26C196.747 26 196.667 25.92 196.667 25.76V18.08C196.667 17.92 196.747 17.84 196.907 17.84H197.787C197.947 17.84 198.027 17.92 198.027 18.08V20.56H200.507C202.107 20.56 202.907 21.3333 202.907 22.88V23.68C202.907 25.2267 202.107 26 200.507 26H196.907ZM205.627 25.76C205.627 25.92 205.547 26 205.387 26H204.507C204.347 26 204.267 25.92 204.267 25.76V18.08C204.267 17.92 204.347 17.84 204.507 17.84H205.387C205.547 17.84 205.627 17.92 205.627 18.08V25.76Z" fill="#7E7E82"/>
<path d="M259.68 21.04C260.587 21.04 261.04 20.5867 261.04 19.68V17.6C261.04 16.6933 260.587 16.24 259.68 16.24H255.12V21.04H259.68ZM255.12 22.48V25.76C255.12 25.92 255.04 26 254.88 26H253.84C253.68 26 253.6 25.92 253.6 25.76V15.04C253.6 14.88 253.68 14.8 253.84 14.8H259.68C261.6 14.8 262.56 15.7333 262.56 17.6V19.68C262.56 21.5467 261.6 22.48 259.68 22.48H255.12ZM270.288 21.2V20.16C270.288 19.7973 270.176 19.5093 269.952 19.296C269.738 19.072 269.45 18.96 269.088 18.96H267.168C266.805 18.96 266.512 19.072 266.288 19.296C266.074 19.5093 265.968 19.7973 265.968 20.16V21.2H270.288ZM265.968 22.48V23.68C265.968 24.0427 266.074 24.336 266.288 24.56C266.512 24.7733 266.805 24.88 267.168 24.88H269.088C269.45 24.88 269.738 24.7733 269.952 24.56C270.176 24.336 270.288 24.0427 270.288 23.68V23.6C270.288 23.44 270.368 23.36 270.528 23.36H271.408C271.568 23.36 271.648 23.44 271.648 23.6V23.68C271.648 24.48 271.429 25.0933 270.992 25.52C270.565 25.9467 269.93 26.16 269.088 26.16H267.168C266.325 26.16 265.685 25.9467 265.248 25.52C264.821 25.0933 264.608 24.48 264.608 23.68V20.16C264.608 19.36 264.821 18.7467 265.248 18.32C265.685 17.8933 266.325 17.68 267.168 17.68H269.088C269.93 17.68 270.565 17.8933 270.992 18.32C271.429 18.7467 271.648 19.36 271.648 20.16V22.24C271.648 22.4 271.568 22.48 271.408 22.48H265.968ZM278.489 24.24L281.369 18.08C281.411 17.9947 281.459 17.936 281.513 17.904C281.577 17.8613 281.689 17.84 281.849 17.84H282.809C282.969 17.84 283.049 17.92 283.049 18.08V25.76C283.049 25.92 282.969 26 282.809 26H281.929C281.769 26 281.689 25.92 281.689 25.76V20.48H281.609L279.129 25.76C279.086 25.8453 279.033 25.9093 278.969 25.952C278.915 25.984 278.809 26 278.649 26H278.249C278.089 26 277.977 25.984 277.913 25.952C277.859 25.9093 277.811 25.8453 277.769 25.76L275.289 20.48H275.209V25.76C275.209 25.92 275.129 26 274.969 26H274.089C273.929 26 273.849 25.92 273.849 25.76V18.08C273.849 17.92 273.929 17.84 274.089 17.84H275.049C275.209 17.84 275.315 17.8613 275.369 17.904C275.433 17.936 275.486 17.9947 275.529 18.08L278.409 24.24H278.489ZM291.014 20.16C291.014 19.7973 290.902 19.5093 290.678 19.296C290.465 19.072 290.177 18.96 289.814 18.96H287.814C287.452 18.96 287.158 19.072 286.934 19.296C286.721 19.5093 286.614 19.7973 286.614 20.16V23.68C286.614 24.0427 286.721 24.336 286.934 24.56C287.158 24.7733 287.452 24.88 287.814 24.88H289.814C290.177 24.88 290.465 24.7733 290.678 24.56C290.902 24.336 291.014 24.0427 291.014 23.68V20.16ZM292.374 23.68C292.374 24.48 292.156 25.0933 291.718 25.52C291.292 25.9467 290.657 26.16 289.814 26.16H287.814C286.972 26.16 286.332 25.9467 285.894 25.52C285.468 25.0933 285.254 24.48 285.254 23.68V20.16C285.254 19.36 285.468 18.7467 285.894 18.32C286.332 17.8933 286.972 17.68 287.814 17.68H289.814C290.657 17.68 291.292 17.8933 291.718 18.32C292.156 18.7467 292.374 19.36 292.374 20.16V23.68ZM295.934 22.48V25.76C295.934 25.92 295.854 26 295.694 26H294.814C294.654 26 294.574 25.92 294.574 25.76V18.08C294.574 17.92 294.654 17.84 294.814 17.84H295.694C295.854 17.84 295.934 17.92 295.934 18.08V21.28H300.014V18.08C300.014 17.92 300.094 17.84 300.254 17.84H301.134C301.294 17.84 301.374 17.92 301.374 18.08V25.76C301.374 25.92 301.294 26 301.134 26H300.254C300.094 26 300.014 25.92 300.014 25.76V22.48H295.934ZM305.573 26C305.413 26 305.333 25.92 305.333 25.76V19.12H302.853C302.693 19.12 302.613 19.04 302.613 18.88V18.08C302.613 17.92 302.693 17.84 302.853 17.84H309.173C309.333 17.84 309.413 17.92 309.413 18.08V18.88C309.413 19.04 309.333 19.12 309.173 19.12H306.693V25.76C306.693 25.92 306.613 26 306.453 26H305.573ZM317.378 17.84C317.538 17.84 317.618 17.92 317.618 18.08V25.76C317.618 25.92 317.538 26 317.378 26H316.498C316.338 26 316.258 25.92 316.258 25.76V19.92H316.178L312.338 25.76C312.285 25.8453 312.231 25.9093 312.178 25.952C312.125 25.984 312.018 26 311.858 26H310.898C310.738 26 310.658 25.92 310.658 25.76V18.08C310.658 17.92 310.738 17.84 310.898 17.84H311.778C311.938 17.84 312.018 17.92 312.018 18.08V23.92H312.098L315.938 18.08C315.991 17.9947 316.045 17.936 316.098 17.904C316.151 17.8613 316.258 17.84 316.418 17.84H317.378ZM324.374 24.72C324.736 24.72 325.024 24.6133 325.238 24.4C325.462 24.176 325.574 23.8827 325.574 23.52V20.16C325.574 19.7973 325.462 19.5093 325.238 19.296C325.024 19.072 324.736 18.96 324.374 18.96H323.014C322.534 18.96 322.134 19.12 321.814 19.44C321.494 19.76 321.334 20.16 321.334 20.64V24.72H324.374ZM321.334 26V28.8C321.334 28.96 321.254 29.04 321.094 29.04H320.214C320.054 29.04 319.974 28.96 319.974 28.8V18.08C319.974 17.92 320.054 17.84 320.214 17.84H321.094C321.254 17.84 321.334 17.92 321.334 18.08V18.64H321.414C321.499 18.4587 321.622 18.2987 321.782 18.16C321.92 18.0427 322.102 17.936 322.326 17.84C322.55 17.7333 322.832 17.68 323.174 17.68H324.374C325.216 17.68 325.851 17.8933 326.278 18.32C326.715 18.7467 326.934 19.36 326.934 20.16V23.52C326.934 24.32 326.715 24.9333 326.278 25.36C325.851 25.7867 325.216 26 324.374 26H321.334ZM334.205 18.08C334.237 17.9947 334.28 17.936 334.333 17.904C334.397 17.8613 334.488 17.84 334.605 17.84H335.565C335.736 17.84 335.789 17.92 335.725 18.08L332.605 26C332.381 26.5653 332.162 27.04 331.949 27.424C331.736 27.808 331.506 28.1173 331.261 28.352C331.016 28.5973 330.749 28.7733 330.461 28.88C330.173 28.9867 329.848 29.04 329.485 29.04H329.165C329.005 29.04 328.925 28.96 328.925 28.8V28C328.925 27.84 329.005 27.76 329.165 27.76H329.485C329.89 27.76 330.221 27.6267 330.477 27.36C330.744 27.0933 331 26.64 331.245 26L328.125 18.08C328.061 17.92 328.114 17.84 328.285 17.84H329.245C329.362 17.84 329.448 17.8613 329.501 17.904C329.565 17.936 329.613 17.9947 329.645 18.08L331.885 24.08H331.965L334.205 18.08ZM342.594 21.2V20.16C342.594 19.7973 342.482 19.5093 342.258 19.296C342.044 19.072 341.756 18.96 341.394 18.96H339.474C339.111 18.96 338.818 19.072 338.594 19.296C338.38 19.5093 338.274 19.7973 338.274 20.16V21.2H342.594ZM338.274 22.48V23.68C338.274 24.0427 338.38 24.336 338.594 24.56C338.818 24.7733 339.111 24.88 339.474 24.88H341.394C341.756 24.88 342.044 24.7733 342.258 24.56C342.482 24.336 342.594 24.0427 342.594 23.68V23.6C342.594 23.44 342.674 23.36 342.834 23.36H343.714C343.874 23.36 343.954 23.44 343.954 23.6V23.68C343.954 24.48 343.735 25.0933 343.298 25.52C342.871 25.9467 342.236 26.16 341.394 26.16H339.474C338.631 26.16 337.991 25.9467 337.554 25.52C337.127 25.0933 336.914 24.48 336.914 23.68V20.16C336.914 19.36 337.127 18.7467 337.554 18.32C337.991 17.8933 338.631 17.68 339.474 17.68H341.394C342.236 17.68 342.871 17.8933 343.298 18.32C343.735 18.7467 343.954 19.36 343.954 20.16V22.24C343.954 22.4 343.874 22.48 343.714 22.48H338.274ZM350.795 24.24L353.675 18.08C353.718 17.9947 353.766 17.936 353.819 17.904C353.883 17.8613 353.995 17.84 354.155 17.84H355.115C355.275 17.84 355.355 17.92 355.355 18.08V25.76C355.355 25.92 355.275 26 355.115 26H354.235C354.075 26 353.995 25.92 353.995 25.76V20.48H353.915L351.435 25.76C351.392 25.8453 351.339 25.9093 351.275 25.952C351.222 25.984 351.115 26 350.955 26H350.555C350.395 26 350.283 25.984 350.219 25.952C350.166 25.9093 350.118 25.8453 350.075 25.76L347.595 20.48H347.515V25.76C347.515 25.92 347.435 26 347.275 26H346.395C346.235 26 346.155 25.92 346.155 25.76V18.08C346.155 17.92 346.235 17.84 346.395 17.84H347.355C347.515 17.84 347.622 17.8613 347.675 17.904C347.739 17.936 347.792 17.9947 347.835 18.08L350.715 24.24H350.795ZM361.561 24.72C361.881 24.72 362.131 24.6293 362.313 24.448C362.505 24.256 362.601 24 362.601 23.68V22.88C362.601 22.56 362.505 22.3093 362.313 22.128C362.131 21.936 361.881 21.84 361.561 21.84H359.081V24.72H361.561ZM357.961 26C357.801 26 357.721 25.92 357.721 25.76V18.08C357.721 17.92 357.801 17.84 357.961 17.84H358.841C359.001 17.84 359.081 17.92 359.081 18.08V20.56H361.561C363.161 20.56 363.961 21.3333 363.961 22.88V23.68C363.961 25.2267 363.161 26 361.561 26H357.961ZM366.681 25.76C366.681 25.92 366.601 26 366.441 26H365.561C365.401 26 365.321 25.92 365.321 25.76V18.08C365.321 17.92 365.401 17.84 365.561 17.84H366.441C366.601 17.84 366.681 17.92 366.681 18.08V25.76ZM374.556 21.2V20.16C374.556 19.7973 374.444 19.5093 374.22 19.296C374.007 19.072 373.719 18.96 373.356 18.96H371.436C371.074 18.96 370.78 19.072 370.556 19.296C370.343 19.5093 370.236 19.7973 370.236 20.16V21.2H374.556ZM370.236 22.48V23.68C370.236 24.0427 370.343 24.336 370.556 24.56C370.78 24.7733 371.074 24.88 371.436 24.88H373.356C373.719 24.88 374.007 24.7733 374.22 24.56C374.444 24.336 374.556 24.0427 374.556 23.68V23.6C374.556 23.44 374.636 23.36 374.796 23.36H375.676C375.836 23.36 375.916 23.44 375.916 23.6V23.68C375.916 24.48 375.698 25.0933 375.26 25.52C374.834 25.9467 374.199 26.16 373.356 26.16H371.436C370.594 26.16 369.954 25.9467 369.516 25.52C369.09 25.0933 368.876 24.48 368.876 23.68V20.16C368.876 19.36 369.09 18.7467 369.516 18.32C369.954 17.8933 370.594 17.68 371.436 17.68H373.356C374.199 17.68 374.834 17.8933 375.26 18.32C375.698 18.7467 375.916 19.36 375.916 20.16V22.24C375.916 22.4 375.836 22.48 375.676 22.48H370.236ZM386.193 18.08C386.225 17.9947 386.267 17.936 386.321 17.904C386.385 17.8613 386.475 17.84 386.593 17.84H387.553C387.723 17.84 387.777 17.92 387.713 18.08L384.593 26C384.369 26.5653 384.15 27.04 383.937 27.424C383.723 27.808 383.494 28.1173 383.249 28.352C383.003 28.5973 382.737 28.7733 382.449 28.88C382.161 28.9867 381.835 29.04 381.473 29.04H381.153C380.993 29.04 380.913 28.96 380.913 28.8V28C380.913 27.84 380.993 27.76 381.153 27.76H381.473C381.878 27.76 382.209 27.6267 382.465 27.36C382.731 27.0933 382.987 26.64 383.233 26L380.113 18.08C380.049 17.92 380.102 17.84 380.273 17.84H381.233C381.35 17.84 381.435 17.8613 381.489 17.904C381.553 17.936 381.601 17.9947 381.633 18.08L383.873 24.08H383.953L386.193 18.08ZM390.261 23.68C390.261 24.0427 390.368 24.336 390.581 24.56C390.805 24.7733 391.099 24.88 391.461 24.88H393.301C393.664 24.88 393.952 24.7733 394.165 24.56C394.389 24.336 394.501 24.0427 394.501 23.68V23.28C394.501 23.12 394.581 23.04 394.741 23.04H395.621C395.781 23.04 395.861 23.12 395.861 23.28V23.68C395.861 24.48 395.643 25.0933 395.205 25.52C394.779 25.9467 394.144 26.16 393.301 26.16H391.461C390.619 26.16 389.979 25.9467 389.541 25.52C389.115 25.0933 388.901 24.48 388.901 23.68V20.16C388.901 19.36 389.115 18.7467 389.541 18.32C389.979 17.8933 390.619 17.68 391.461 17.68H393.301C394.144 17.68 394.779 17.8933 395.205 18.32C395.643 18.7467 395.861 19.36 395.861 20.16V20.56C395.861 20.72 395.781 20.8 395.621 20.8H394.741C394.581 20.8 394.501 20.72 394.501 20.56V20.16C394.501 19.7973 394.389 19.5093 394.165 19.296C393.952 19.072 393.664 18.96 393.301 18.96H391.461C391.099 18.96 390.805 19.072 390.581 19.296C390.368 19.5093 390.261 19.7973 390.261 20.16V23.68ZM399.748 26C399.588 26 399.508 25.92 399.508 25.76V19.12H397.028C396.868 19.12 396.788 19.04 396.788 18.88V18.08C396.788 17.92 396.868 17.84 397.028 17.84H403.348C403.508 17.84 403.588 17.92 403.588 18.08V18.88C403.588 19.04 403.508 19.12 403.348 19.12H400.868V25.76C400.868 25.92 400.788 26 400.628 26H399.748ZM409.233 24.72C409.596 24.72 409.884 24.6133 410.097 24.4C410.321 24.176 410.433 23.8827 410.433 23.52V20.16C410.433 19.7973 410.321 19.5093 410.097 19.296C409.884 19.072 409.596 18.96 409.233 18.96H407.873C407.393 18.96 406.993 19.12 406.673 19.44C406.353 19.76 406.193 20.16 406.193 20.64V24.72H409.233ZM406.193 26V28.8C406.193 28.96 406.113 29.04 405.953 29.04H405.073C404.913 29.04 404.833 28.96 404.833 28.8V18.08C404.833 17.92 404.913 17.84 405.073 17.84H405.953C406.113 17.84 406.193 17.92 406.193 18.08V18.64H406.273C406.358 18.4587 406.481 18.2987 406.641 18.16C406.78 18.0427 406.961 17.936 407.185 17.84C407.409 17.7333 407.692 17.68 408.033 17.68H409.233C410.076 17.68 410.71 17.8933 411.137 18.32C411.574 18.7467 411.793 19.36 411.793 20.16V23.52C411.793 24.32 411.574 24.9333 411.137 25.36C410.71 25.7867 410.076 26 409.233 26H406.193ZM419.592 20.16C419.592 19.7973 419.48 19.5093 419.256 19.296C419.043 19.072 418.755 18.96 418.392 18.96H416.392C416.03 18.96 415.736 19.072 415.512 19.296C415.299 19.5093 415.192 19.7973 415.192 20.16V23.68C415.192 24.0427 415.299 24.336 415.512 24.56C415.736 24.7733 416.03 24.88 416.392 24.88H418.392C418.755 24.88 419.043 24.7733 419.256 24.56C419.48 24.336 419.592 24.0427 419.592 23.68V20.16ZM420.952 23.68C420.952 24.48 420.734 25.0933 420.296 25.52C419.87 25.9467 419.235 26.16 418.392 26.16H416.392C415.55 26.16 414.91 25.9467 414.472 25.52C414.046 25.0933 413.832 24.48 413.832 23.68V20.16C413.832 19.36 414.046 18.7467 414.472 18.32C414.91 17.8933 415.55 17.68 416.392 17.68H418.392C419.235 17.68 419.87 17.8933 420.296 18.32C420.734 18.7467 420.952 19.36 420.952 20.16V23.68ZM426.192 16.56C425.584 16.56 425.125 16.4107 424.816 16.112C424.507 15.8027 424.352 15.3653 424.352 14.8V14.4C424.352 14.24 424.432 14.16 424.592 14.16H425.312C425.472 14.16 425.552 14.24 425.552 14.4V14.8C425.552 15.2267 425.765 15.44 426.192 15.44H427.072C427.499 15.44 427.712 15.2267 427.712 14.8V14.4C427.712 14.24 427.792 14.16 427.952 14.16H428.672C428.832 14.16 428.912 14.24 428.912 14.4V14.8C428.912 15.3653 428.757 15.8027 428.448 16.112C428.139 16.4107 427.68 16.56 427.072 16.56H426.192ZM429.872 17.84C430.032 17.84 430.112 17.92 430.112 18.08V25.76C430.112 25.92 430.032 26 429.872 26H428.992C428.832 26 428.752 25.92 428.752 25.76V19.92H428.672L424.832 25.76C424.779 25.8453 424.725 25.9093 424.672 25.952C424.619 25.984 424.512 26 424.352 26H423.392C423.232 26 423.152 25.92 423.152 25.76V18.08C423.152 17.92 423.232 17.84 423.392 17.84H424.272C424.432 17.84 424.512 17.92 424.512 18.08V23.92H424.592L428.432 18.08C428.485 17.9947 428.539 17.936 428.592 17.904C428.645 17.8613 428.752 17.84 428.912 17.84H429.872ZM433.668 23.68C433.668 24.0427 433.774 24.336 433.988 24.56C434.212 24.7733 434.505 24.88 434.868 24.88H436.708C437.07 24.88 437.358 24.7733 437.572 24.56C437.796 24.336 437.908 24.0427 437.908 23.68V23.28C437.908 23.12 437.988 23.04 438.148 23.04H439.028C439.188 23.04 439.267 23.12 439.267 23.28V23.68C439.267 24.48 439.049 25.0933 438.612 25.52C438.185 25.9467 437.55 26.16 436.708 26.16H434.868C434.025 26.16 433.385 25.9467 432.948 25.52C432.521 25.0933 432.308 24.48 432.308 23.68V20.16C432.308 19.36 432.521 18.7467 432.948 18.32C433.385 17.8933 434.025 17.68 434.868 17.68H436.708C437.55 17.68 438.185 17.8933 438.612 18.32C439.049 18.7467 439.267 19.36 439.267 20.16V20.56C439.267 20.72 439.188 20.8 439.028 20.8H438.148C437.988 20.8 437.908 20.72 437.908 20.56V20.16C437.908 19.7973 437.796 19.5093 437.572 19.296C437.358 19.072 437.07 18.96 436.708 18.96H434.868C434.505 18.96 434.212 19.072 433.988 19.296C433.774 19.5093 433.668 19.7973 433.668 20.16V23.68ZM443.154 26C442.994 26 442.914 25.92 442.914 25.76V19.12H440.434C440.274 19.12 440.194 19.04 440.194 18.88V18.08C440.194 17.92 440.274 17.84 440.434 17.84H446.754C446.914 17.84 446.994 17.92 446.994 18.08V18.88C446.994 19.04 446.914 19.12 446.754 19.12H444.274V25.76C444.274 25.92 444.194 26 444.034 26H443.154ZM452.639 24.72C452.959 24.72 453.21 24.6293 453.391 24.448C453.583 24.256 453.679 24 453.679 23.68V23.52C453.679 23.2 453.583 22.9493 453.391 22.768C453.21 22.576 452.959 22.48 452.639 22.48H449.599V24.72H452.639ZM452.159 21.2C452.479 21.2 452.73 21.1093 452.911 20.928C453.103 20.736 453.199 20.48 453.199 20.16C453.199 19.84 453.103 19.5893 452.911 19.408C452.73 19.216 452.479 19.12 452.159 19.12H449.599V21.2H452.159ZM448.479 26C448.319 26 448.239 25.92 448.239 25.76V18.08C448.239 17.92 448.319 17.84 448.479 17.84H452.159C453.759 17.84 454.559 18.6133 454.559 20.16C454.559 20.48 454.501 20.7413 454.383 20.944C454.277 21.136 454.159 21.2907 454.031 21.408C453.882 21.536 453.711 21.6267 453.519 21.68V21.76C453.797 21.8133 454.047 21.9147 454.271 22.064C454.463 22.192 454.639 22.3733 454.799 22.608C454.959 22.8427 455.039 23.1467 455.039 23.52V23.68C455.039 25.2267 454.239 26 452.639 26H448.479ZM456.594 23.52C456.594 21.9733 457.394 21.2 458.994 21.2H461.954V20.16C461.954 19.7973 461.842 19.5093 461.618 19.296C461.405 19.072 461.117 18.96 460.754 18.96H459.634C459.272 18.96 458.978 19.072 458.754 19.296C458.541 19.5093 458.434 19.7973 458.434 20.16C458.434 20.32 458.354 20.4 458.194 20.4H457.314C457.154 20.4 457.074 20.32 457.074 20.16C457.074 19.36 457.288 18.7467 457.714 18.32C458.152 17.8933 458.792 17.68 459.634 17.68H460.754C461.597 17.68 462.232 17.8933 462.658 18.32C463.096 18.7467 463.314 19.36 463.314 20.16V25.76C463.314 25.92 463.234 26 463.074 26H462.194C462.034 26 461.954 25.92 461.954 25.76V25.2H461.874C461.789 25.3813 461.666 25.5413 461.506 25.68C461.368 25.7973 461.186 25.904 460.962 26C460.738 26.1067 460.456 26.16 460.114 26.16H458.994C457.394 26.16 456.594 25.3867 456.594 23.84V23.52ZM457.954 23.84C457.954 24.16 458.045 24.416 458.226 24.608C458.418 24.7893 458.674 24.88 458.994 24.88H460.274C460.754 24.88 461.154 24.72 461.474 24.4C461.794 24.08 461.954 23.68 461.954 23.2V22.48H458.994C458.674 22.48 458.418 22.576 458.226 22.768C458.045 22.9493 457.954 23.2 457.954 23.52V23.84Z" fill="#7E7E82"/>
<path d="M658.232 23.68L656.344 18.56H656.28L654.392 23.68H658.232ZM653.832 25.12L652.872 27.76C652.84 27.8453 652.792 27.9093 652.728 27.952C652.675 27.984 652.589 28 652.472 28H651.352C651.181 28 651.128 27.92 651.192 27.76L655.352 17.04C655.395 16.9547 655.443 16.896 655.496 16.864C655.549 16.8213 655.635 16.8 655.752 16.8H656.872C656.989 16.8 657.075 16.8213 657.128 16.864C657.181 16.896 657.229 16.9547 657.272 17.04L661.432 27.76C661.496 27.92 661.443 28 661.272 28H660.152C660.035 28 659.944 27.984 659.88 27.952C659.827 27.9093 659.784 27.8453 659.752 27.76L658.792 25.12H653.832ZM667.505 21.12H664.865L663.745 26.72H667.505V21.12ZM668.865 26.72H669.665C669.825 26.72 669.905 26.8 669.905 26.96V29.52C669.905 29.68 669.825 29.76 669.665 29.76H668.785C668.625 29.76 668.545 29.68 668.545 29.52V28H662.785V29.52C662.785 29.68 662.705 29.76 662.545 29.76H661.665C661.505 29.76 661.425 29.68 661.425 29.52V26.96C661.425 26.8 661.505 26.72 661.665 26.72H662.385L663.745 20.08C663.777 19.92 663.91 19.84 664.145 19.84H668.625C668.785 19.84 668.865 19.92 668.865 20.08V26.72ZM675.858 26.72C676.221 26.72 676.509 26.6133 676.722 26.4C676.946 26.176 677.058 25.8827 677.058 25.52V22.16C677.058 21.7973 676.946 21.5093 676.722 21.296C676.509 21.072 676.221 20.96 675.858 20.96H674.498C674.018 20.96 673.618 21.12 673.298 21.44C672.978 21.76 672.818 22.16 672.818 22.64V26.72H675.858ZM672.818 28V30.8C672.818 30.96 672.738 31.04 672.578 31.04H671.698C671.538 31.04 671.458 30.96 671.458 30.8V20.08C671.458 19.92 671.538 19.84 671.698 19.84H672.578C672.738 19.84 672.818 19.92 672.818 20.08V20.64H672.898C672.983 20.4587 673.106 20.2987 673.266 20.16C673.405 20.0427 673.586 19.936 673.81 19.84C674.034 19.7333 674.317 19.68 674.658 19.68H675.858C676.701 19.68 677.335 19.8933 677.762 20.32C678.199 20.7467 678.418 21.36 678.418 22.16V25.52C678.418 26.32 678.199 26.9333 677.762 27.36C677.335 27.7867 676.701 28 675.858 28H672.818ZM686.137 23.2V22.16C686.137 21.7973 686.025 21.5093 685.801 21.296C685.588 21.072 685.3 20.96 684.938 20.96H683.017C682.655 20.96 682.361 21.072 682.137 21.296C681.924 21.5093 681.817 21.7973 681.817 22.16V23.2H686.137ZM681.817 24.48V25.68C681.817 26.0427 681.924 26.336 682.137 26.56C682.361 26.7733 682.655 26.88 683.017 26.88H684.938C685.3 26.88 685.588 26.7733 685.801 26.56C686.025 26.336 686.137 26.0427 686.137 25.68V25.6C686.137 25.44 686.217 25.36 686.378 25.36H687.258C687.418 25.36 687.498 25.44 687.498 25.6V25.68C687.498 26.48 687.279 27.0933 686.841 27.52C686.415 27.9467 685.78 28.16 684.938 28.16H683.017C682.175 28.16 681.535 27.9467 681.097 27.52C680.671 27.0933 680.457 26.48 680.457 25.68V22.16C680.457 21.36 680.671 20.7467 681.097 20.32C681.535 19.8933 682.175 19.68 683.017 19.68H684.938C685.78 19.68 686.415 19.8933 686.841 20.32C687.279 20.7467 687.498 21.36 687.498 22.16V24.24C687.498 24.4 687.418 24.48 687.258 24.48H681.817ZM690.899 25.68C690.899 26.0427 691.005 26.336 691.219 26.56C691.443 26.7733 691.736 26.88 692.099 26.88H693.939C694.301 26.88 694.589 26.7733 694.803 26.56C695.027 26.336 695.139 26.0427 695.139 25.68V25.28C695.139 25.12 695.219 25.04 695.379 25.04H696.259C696.419 25.04 696.499 25.12 696.499 25.28V25.68C696.499 26.48 696.28 27.0933 695.843 27.52C695.416 27.9467 694.781 28.16 693.939 28.16H692.099C691.256 28.16 690.616 27.9467 690.179 27.52C689.752 27.0933 689.539 26.48 689.539 25.68V22.16C689.539 21.36 689.752 20.7467 690.179 20.32C690.616 19.8933 691.256 19.68 692.099 19.68H693.939C694.781 19.68 695.416 19.8933 695.843 20.32C696.28 20.7467 696.499 21.36 696.499 22.16V22.56C696.499 22.72 696.419 22.8 696.259 22.8H695.379C695.219 22.8 695.139 22.72 695.139 22.56V22.16C695.139 21.7973 695.027 21.5093 694.803 21.296C694.589 21.072 694.301 20.96 693.939 20.96H692.099C691.736 20.96 691.443 21.072 691.219 21.296C691.005 21.5093 690.899 21.7973 690.899 22.16V25.68ZM698.226 25.52C698.226 23.9733 699.026 23.2 700.626 23.2H703.586V22.16C703.586 21.7973 703.474 21.5093 703.25 21.296C703.036 21.072 702.748 20.96 702.386 20.96H701.266C700.903 20.96 700.61 21.072 700.386 21.296C700.172 21.5093 700.066 21.7973 700.066 22.16C700.066 22.32 699.986 22.4 699.826 22.4H698.946C698.786 22.4 698.706 22.32 698.706 22.16C698.706 21.36 698.919 20.7467 699.346 20.32C699.783 19.8933 700.423 19.68 701.266 19.68H702.386C703.228 19.68 703.863 19.8933 704.29 20.32C704.727 20.7467 704.946 21.36 704.946 22.16V27.76C704.946 27.92 704.866 28 704.706 28H703.826C703.666 28 703.586 27.92 703.586 27.76V27.2H703.506C703.42 27.3813 703.298 27.5413 703.138 27.68C702.999 27.7973 702.818 27.904 702.594 28C702.37 28.1067 702.087 28.16 701.746 28.16H700.626C699.026 28.16 698.226 27.3867 698.226 25.84V25.52ZM699.586 25.84C699.586 26.16 699.676 26.416 699.858 26.608C700.05 26.7893 700.306 26.88 700.626 26.88H701.906C702.386 26.88 702.786 26.72 703.106 26.4C703.426 26.08 703.586 25.68 703.586 25.2V24.48H700.626C700.306 24.48 700.05 24.576 699.858 24.768C699.676 24.9493 699.586 25.2 699.586 25.52V25.84ZM711.502 25.68C711.502 26.0427 711.609 26.336 711.822 26.56C712.046 26.7733 712.339 26.88 712.702 26.88H714.542C714.905 26.88 715.193 26.7733 715.406 26.56C715.63 26.336 715.742 26.0427 715.742 25.68V25.28C715.742 25.12 715.822 25.04 715.982 25.04H716.862C717.022 25.04 717.102 25.12 717.102 25.28V25.68C717.102 26.48 716.883 27.0933 716.446 27.52C716.019 27.9467 715.385 28.16 714.542 28.16H712.702C711.859 28.16 711.219 27.9467 710.782 27.52C710.355 27.0933 710.142 26.48 710.142 25.68V22.16C710.142 21.36 710.355 20.7467 710.782 20.32C711.219 19.8933 711.859 19.68 712.702 19.68H714.542C715.385 19.68 716.019 19.8933 716.446 20.32C716.883 20.7467 717.102 21.36 717.102 22.16V22.56C717.102 22.72 717.022 22.8 716.862 22.8H715.982C715.822 22.8 715.742 22.72 715.742 22.56V22.16C715.742 21.7973 715.63 21.5093 715.406 21.296C715.193 21.072 714.905 20.96 714.542 20.96H712.702C712.339 20.96 712.046 21.072 711.822 21.296C711.609 21.5093 711.502 21.7973 711.502 22.16V25.68ZM724.669 23.2V22.16C724.669 21.7973 724.557 21.5093 724.333 21.296C724.119 21.072 723.831 20.96 723.469 20.96H721.549C721.186 20.96 720.893 21.072 720.669 21.296C720.455 21.5093 720.349 21.7973 720.349 22.16V23.2H724.669ZM720.349 24.48V25.68C720.349 26.0427 720.455 26.336 720.669 26.56C720.893 26.7733 721.186 26.88 721.549 26.88H723.469C723.831 26.88 724.119 26.7733 724.333 26.56C724.557 26.336 724.669 26.0427 724.669 25.68V25.6C724.669 25.44 724.749 25.36 724.909 25.36H725.789C725.949 25.36 726.029 25.44 726.029 25.6V25.68C726.029 26.48 725.81 27.0933 725.373 27.52C724.946 27.9467 724.311 28.16 723.469 28.16H721.549C720.706 28.16 720.066 27.9467 719.629 27.52C719.202 27.0933 718.989 26.48 718.989 25.68V22.16C718.989 21.36 719.202 20.7467 719.629 20.32C720.066 19.8933 720.706 19.68 721.549 19.68H723.469C724.311 19.68 724.946 19.8933 725.373 20.32C725.81 20.7467 726.029 21.36 726.029 22.16V24.24C726.029 24.4 725.949 24.48 725.789 24.48H720.349ZM732.63 26.72C732.993 26.72 733.281 26.6133 733.494 26.4C733.718 26.176 733.83 25.8827 733.83 25.52V22.16C733.83 21.7973 733.718 21.5093 733.494 21.296C733.281 21.072 732.993 20.96 732.63 20.96H731.27C730.79 20.96 730.39 21.12 730.07 21.44C729.75 21.76 729.59 22.16 729.59 22.64V26.72H732.63ZM729.59 28V30.8C729.59 30.96 729.51 31.04 729.35 31.04H728.47C728.31 31.04 728.23 30.96 728.23 30.8V20.08C728.23 19.92 728.31 19.84 728.47 19.84H729.35C729.51 19.84 729.59 19.92 729.59 20.08V20.64H729.67C729.755 20.4587 729.878 20.2987 730.038 20.16C730.177 20.0427 730.358 19.936 730.582 19.84C730.806 19.7333 731.089 19.68 731.43 19.68H732.63C733.473 19.68 734.107 19.8933 734.534 20.32C734.971 20.7467 735.19 21.36 735.19 22.16V25.52C735.19 26.32 734.971 26.9333 734.534 27.36C734.107 27.7867 733.473 28 732.63 28H729.59ZM741.789 26.72C742.109 26.72 742.36 26.6293 742.541 26.448C742.733 26.256 742.829 26 742.829 25.68V25.52C742.829 25.2 742.733 24.9493 742.541 24.768C742.36 24.576 742.109 24.48 741.789 24.48H738.749V26.72H741.789ZM741.309 23.2C741.629 23.2 741.88 23.1093 742.061 22.928C742.253 22.736 742.349 22.48 742.349 22.16C742.349 21.84 742.253 21.5893 742.061 21.408C741.88 21.216 741.629 21.12 741.309 21.12H738.749V23.2H741.309ZM737.629 28C737.469 28 737.389 27.92 737.389 27.76V20.08C737.389 19.92 737.469 19.84 737.629 19.84H741.309C742.909 19.84 743.709 20.6133 743.709 22.16C743.709 22.48 743.651 22.7413 743.533 22.944C743.427 23.136 743.309 23.2907 743.181 23.408C743.032 23.536 742.861 23.6267 742.669 23.68V23.76C742.947 23.8133 743.197 23.9147 743.421 24.064C743.613 24.192 743.789 24.3733 743.949 24.608C744.109 24.8427 744.189 25.1467 744.189 25.52V25.68C744.189 27.2267 743.389 28 741.789 28H737.629ZM752.784 19.84C752.944 19.84 753.024 19.92 753.024 20.08V27.76C753.024 27.92 752.944 28 752.784 28H751.904C751.744 28 751.664 27.92 751.664 27.76V21.92H751.584L747.744 27.76C747.691 27.8453 747.638 27.9093 747.584 27.952C747.531 27.984 747.424 28 747.264 28H746.304C746.144 28 746.064 27.92 746.064 27.76V20.08C746.064 19.92 746.144 19.84 746.304 19.84H747.184C747.344 19.84 747.424 19.92 747.424 20.08V25.92H747.504L751.344 20.08C751.398 19.9947 751.451 19.936 751.504 19.904C751.558 19.8613 751.664 19.84 751.824 19.84H752.784ZM756.58 25.68C756.58 26.0427 756.687 26.336 756.9 26.56C757.124 26.7733 757.417 26.88 757.78 26.88H759.62C759.983 26.88 760.271 26.7733 760.484 26.56C760.708 26.336 760.82 26.0427 760.82 25.68V25.28C760.82 25.12 760.9 25.04 761.06 25.04H761.94C762.1 25.04 762.18 25.12 762.18 25.28V25.68C762.18 26.48 761.961 27.0933 761.524 27.52C761.097 27.9467 760.463 28.16 759.62 28.16H757.78C756.937 28.16 756.297 27.9467 755.86 27.52C755.433 27.0933 755.22 26.48 755.22 25.68V22.16C755.22 21.36 755.433 20.7467 755.86 20.32C756.297 19.8933 756.937 19.68 757.78 19.68H759.62C760.463 19.68 761.097 19.8933 761.524 20.32C761.961 20.7467 762.18 21.36 762.18 22.16V22.56C762.18 22.72 762.1 22.8 761.94 22.8H761.06C760.9 22.8 760.82 22.72 760.82 22.56V22.16C760.82 21.7973 760.708 21.5093 760.484 21.296C760.271 21.072 759.983 20.96 759.62 20.96H757.78C757.417 20.96 757.124 21.072 756.9 21.296C756.687 21.5093 756.58 21.7973 756.58 22.16V25.68ZM765.587 24.48V27.76C765.587 27.92 765.507 28 765.347 28H764.467C764.307 28 764.227 27.92 764.227 27.76V20.08C764.227 19.92 764.307 19.84 764.467 19.84H765.347C765.507 19.84 765.587 19.92 765.587 20.08V23.28H769.667V20.08C769.667 19.92 769.747 19.84 769.907 19.84H770.787C770.947 19.84 771.027 19.92 771.027 20.08V27.76C771.027 27.92 770.947 28 770.787 28H769.907C769.747 28 769.667 27.92 769.667 27.76V24.48H765.587ZM777.226 26.72C777.546 26.72 777.797 26.6293 777.978 26.448C778.17 26.256 778.266 26 778.266 25.68V24.88C778.266 24.56 778.17 24.3093 777.978 24.128C777.797 23.936 777.546 23.84 777.226 23.84H774.746V26.72H777.226ZM773.626 28C773.466 28 773.386 27.92 773.386 27.76V20.08C773.386 19.92 773.466 19.84 773.626 19.84H774.506C774.666 19.84 774.746 19.92 774.746 20.08V22.56H777.226C778.826 22.56 779.626 23.3333 779.626 24.88V25.68C779.626 27.2267 778.826 28 777.226 28H773.626ZM782.346 27.76C782.346 27.92 782.266 28 782.106 28H781.226C781.066 28 780.986 27.92 780.986 27.76V20.08C780.986 19.92 781.066 19.84 781.226 19.84H782.106C782.266 19.84 782.346 19.92 782.346 20.08V27.76ZM787.23 22.8L788.99 20.08C789.043 19.9947 789.091 19.936 789.134 19.904C789.187 19.8613 789.273 19.84 789.39 19.84H790.35C790.435 19.84 790.494 19.8613 790.526 19.904C790.569 19.936 790.563 19.9947 790.51 20.08L788.11 23.76L790.75 27.76C790.803 27.8347 790.809 27.8933 790.766 27.936C790.734 27.9787 790.675 28 790.59 28H789.63C789.513 28 789.427 27.984 789.374 27.952C789.331 27.9093 789.283 27.8453 789.23 27.76L787.23 24.72L785.23 27.76C785.177 27.8453 785.123 27.9093 785.07 27.952C785.027 27.984 784.947 28 784.83 28H783.87C783.785 28 783.721 27.9787 783.678 27.936C783.646 27.8933 783.657 27.8347 783.71 27.76L786.35 23.76L783.95 20.08C783.897 19.9947 783.886 19.936 783.918 19.904C783.961 19.8613 784.025 19.84 784.11 19.84H785.07C785.187 19.84 785.267 19.8613 785.31 19.904C785.363 19.936 785.417 19.9947 785.47 20.08L787.23 22.8ZM795.354 28C795.194 28 795.114 27.92 795.114 27.76V20.08C795.114 19.92 795.194 19.84 795.354 19.84H796.234C796.394 19.84 796.474 19.92 796.474 20.08V26.72H800.394V20.08C800.394 19.92 800.474 19.84 800.634 19.84H801.514C801.674 19.84 801.754 19.92 801.754 20.08V26.96L803.194 28.56C803.237 28.6027 803.258 28.656 803.258 28.72C803.258 28.784 803.237 28.8373 803.194 28.88L802.474 29.52C802.357 29.616 802.25 29.616 802.154 29.52L800.794 28H795.354ZM809.856 23.2V22.16C809.856 21.7973 809.744 21.5093 809.52 21.296C809.307 21.072 809.019 20.96 808.656 20.96H806.736C806.374 20.96 806.08 21.072 805.856 21.296C805.643 21.5093 805.536 21.7973 805.536 22.16V23.2H809.856ZM805.536 24.48V25.68C805.536 26.0427 805.643 26.336 805.856 26.56C806.08 26.7733 806.374 26.88 806.736 26.88H808.656C809.019 26.88 809.307 26.7733 809.52 26.56C809.744 26.336 809.856 26.0427 809.856 25.68V25.6C809.856 25.44 809.936 25.36 810.096 25.36H810.976C811.136 25.36 811.216 25.44 811.216 25.6V25.68C811.216 26.48 810.998 27.0933 810.56 27.52C810.134 27.9467 809.499 28.16 808.656 28.16H806.736C805.894 28.16 805.254 27.9467 804.816 27.52C804.39 27.0933 804.176 26.48 804.176 25.68V22.16C804.176 21.36 804.39 20.7467 804.816 20.32C805.254 19.8933 805.894 19.68 806.736 19.68H808.656C809.499 19.68 810.134 19.8933 810.56 20.32C810.998 20.7467 811.216 21.36 811.216 22.16V24.24C811.216 24.4 811.136 24.48 810.976 24.48H805.536ZM814.777 24.48V27.76C814.777 27.92 814.697 28 814.537 28H813.657C813.497 28 813.417 27.92 813.417 27.76V20.08C813.417 19.92 813.497 19.84 813.657 19.84H814.537C814.697 19.84 814.777 19.92 814.777 20.08V23.28H818.857V20.08C818.857 19.92 818.937 19.84 819.097 19.84H819.977C820.137 19.84 820.217 19.92 820.217 20.08V27.76C820.217 27.92 820.137 28 819.977 28H819.097C818.937 28 818.857 27.92 818.857 27.76V24.48H814.777ZM824.417 28C824.257 28 824.177 27.92 824.177 27.76V21.12H821.697C821.537 21.12 821.457 21.04 821.457 20.88V20.08C821.457 19.92 821.537 19.84 821.697 19.84H828.017C828.177 19.84 828.257 19.92 828.257 20.08V20.88C828.257 21.04 828.177 21.12 828.017 21.12H825.537V27.76C825.537 27.92 825.457 28 825.297 28H824.417ZM833.902 26.72C834.265 26.72 834.553 26.6133 834.766 26.4C834.99 26.176 835.102 25.8827 835.102 25.52V22.16C835.102 21.7973 834.99 21.5093 834.766 21.296C834.553 21.072 834.265 20.96 833.902 20.96H832.542C832.062 20.96 831.662 21.12 831.342 21.44C831.022 21.76 830.862 22.16 830.862 22.64V26.72H833.902ZM830.862 28V30.8C830.862 30.96 830.782 31.04 830.622 31.04H829.742C829.582 31.04 829.502 30.96 829.502 30.8V20.08C829.502 19.92 829.582 19.84 829.742 19.84H830.622C830.782 19.84 830.862 19.92 830.862 20.08V20.64H830.942C831.027 20.4587 831.15 20.2987 831.31 20.16C831.449 20.0427 831.63 19.936 831.854 19.84C832.078 19.7333 832.361 19.68 832.702 19.68H833.902C834.745 19.68 835.379 19.8933 835.806 20.32C836.243 20.7467 836.462 21.36 836.462 22.16V25.52C836.462 26.32 836.243 26.9333 835.806 27.36C835.379 27.7867 834.745 28 833.902 28H830.862ZM844.261 22.16C844.261 21.7973 844.149 21.5093 843.925 21.296C843.712 21.072 843.424 20.96 843.061 20.96H841.061C840.699 20.96 840.405 21.072 840.181 21.296C839.968 21.5093 839.861 21.7973 839.861 22.16V25.68C839.861 26.0427 839.968 26.336 840.181 26.56C840.405 26.7733 840.699 26.88 841.061 26.88H843.061C843.424 26.88 843.712 26.7733 843.925 26.56C844.149 26.336 844.261 26.0427 844.261 25.68V22.16ZM845.621 25.68C845.621 26.48 845.403 27.0933 844.965 27.52C844.539 27.9467 843.904 28.16 843.061 28.16H841.061C840.219 28.16 839.579 27.9467 839.141 27.52C838.715 27.0933 838.501 26.48 838.501 25.68V22.16C838.501 21.36 838.715 20.7467 839.141 20.32C839.579 19.8933 840.219 19.68 841.061 19.68H843.061C843.904 19.68 844.539 19.8933 844.965 20.32C845.403 20.7467 845.621 21.36 845.621 22.16V25.68ZM852.221 26.72C852.541 26.72 852.791 26.6293 852.973 26.448C853.165 26.256 853.261 26 853.261 25.68V25.52C853.261 25.2 853.165 24.9493 852.973 24.768C852.791 24.576 852.541 24.48 852.221 24.48H849.181V26.72H852.221ZM851.741 23.2C852.061 23.2 852.311 23.1093 852.493 22.928C852.685 22.736 852.781 22.48 852.781 22.16C852.781 21.84 852.685 21.5893 852.493 21.408C852.311 21.216 852.061 21.12 851.741 21.12H849.181V23.2H851.741ZM848.061 28C847.901 28 847.821 27.92 847.821 27.76V20.08C847.821 19.92 847.901 19.84 848.061 19.84H851.741C853.341 19.84 854.141 20.6133 854.141 22.16C854.141 22.48 854.082 22.7413 853.965 22.944C853.858 23.136 853.741 23.2907 853.613 23.408C853.463 23.536 853.293 23.6267 853.101 23.68V23.76C853.378 23.8133 853.629 23.9147 853.853 24.064C854.045 24.192 854.221 24.3733 854.381 24.608C854.541 24.8427 854.621 25.1467 854.621 25.52V25.68C854.621 27.2267 853.821 28 852.221 28H848.061Z" fill="#7E7E82"/>
<path d="M507.84 26C507.68 26 507.6 25.92 507.6 25.76V15.04C507.6 14.88 507.68 14.8 507.84 14.8H508.88C509.04 14.8 509.12 14.88 509.12 15.04V24.56H514.72V15.04C514.72 14.88 514.8 14.8 514.96 14.8H516C516.16 14.8 516.24 14.88 516.24 15.04V24.8L517.84 26.56C517.883 26.6027 517.904 26.656 517.904 26.72C517.904 26.784 517.883 26.8373 517.84 26.88L517.04 27.6C516.923 27.696 516.816 27.696 516.72 27.6L515.28 26H507.84ZM524.663 21.2V20.16C524.663 19.7973 524.551 19.5093 524.327 19.296C524.113 19.072 523.825 18.96 523.463 18.96H521.543C521.18 18.96 520.887 19.072 520.663 19.296C520.449 19.5093 520.343 19.7973 520.343 20.16V21.2H524.663ZM520.343 22.48V23.68C520.343 24.0427 520.449 24.336 520.663 24.56C520.887 24.7733 521.18 24.88 521.543 24.88H523.463C523.825 24.88 524.113 24.7733 524.327 24.56C524.551 24.336 524.663 24.0427 524.663 23.68V23.6C524.663 23.44 524.743 23.36 524.903 23.36H525.783C525.943 23.36 526.023 23.44 526.023 23.6V23.68C526.023 24.48 525.804 25.0933 525.367 25.52C524.94 25.9467 524.305 26.16 523.463 26.16H521.543C520.7 26.16 520.06 25.9467 519.623 25.52C519.196 25.0933 518.983 24.48 518.983 23.68V20.16C518.983 19.36 519.196 18.7467 519.623 18.32C520.06 17.8933 520.7 17.68 521.543 17.68H523.463C524.305 17.68 524.94 17.8933 525.367 18.32C525.804 18.7467 526.023 19.36 526.023 20.16V22.24C526.023 22.4 525.943 22.48 525.783 22.48H520.343ZM529.584 22.48V25.76C529.584 25.92 529.504 26 529.344 26H528.464C528.304 26 528.224 25.92 528.224 25.76V18.08C528.224 17.92 528.304 17.84 528.464 17.84H529.344C529.504 17.84 529.584 17.92 529.584 18.08V21.28H533.664V18.08C533.664 17.92 533.744 17.84 533.904 17.84H534.784C534.944 17.84 535.024 17.92 535.024 18.08V25.76C535.024 25.92 534.944 26 534.784 26H533.904C533.744 26 533.664 25.92 533.664 25.76V22.48H529.584ZM541.223 24.72C541.543 24.72 541.794 24.6293 541.975 24.448C542.167 24.256 542.263 24 542.263 23.68V22.88C542.263 22.56 542.167 22.3093 541.975 22.128C541.794 21.936 541.543 21.84 541.223 21.84H538.743V24.72H541.223ZM537.623 26C537.463 26 537.383 25.92 537.383 25.76V18.08C537.383 17.92 537.463 17.84 537.623 17.84H538.503C538.663 17.84 538.743 17.92 538.743 18.08V20.56H541.223C542.823 20.56 543.623 21.3333 543.623 22.88V23.68C543.623 25.2267 542.823 26 541.223 26H537.623ZM546.343 25.76C546.343 25.92 546.263 26 546.103 26H545.223C545.063 26 544.983 25.92 544.983 25.76V18.08C544.983 17.92 545.063 17.84 545.223 17.84H546.103C546.263 17.84 546.343 17.92 546.343 18.08V25.76ZM553.062 22.48V25.76C553.062 25.92 552.982 26 552.822 26H551.942C551.782 26 551.702 25.92 551.702 25.76V18.08C551.702 17.92 551.782 17.84 551.942 17.84H552.822C552.982 17.84 553.062 17.92 553.062 18.08V21.28H557.142V18.08C557.142 17.92 557.222 17.84 557.382 17.84H558.262C558.422 17.84 558.502 17.92 558.502 18.08V25.76C558.502 25.92 558.422 26 558.262 26H557.382C557.222 26 557.142 25.92 557.142 25.76V22.48H553.062ZM560.541 23.52C560.541 21.9733 561.341 21.2 562.941 21.2H565.901V20.16C565.901 19.7973 565.789 19.5093 565.565 19.296C565.352 19.072 565.064 18.96 564.701 18.96H563.581C563.219 18.96 562.925 19.072 562.701 19.296C562.488 19.5093 562.381 19.7973 562.381 20.16C562.381 20.32 562.301 20.4 562.141 20.4H561.261C561.101 20.4 561.021 20.32 561.021 20.16C561.021 19.36 561.235 18.7467 561.661 18.32C562.099 17.8933 562.739 17.68 563.581 17.68H564.701C565.544 17.68 566.179 17.8933 566.605 18.32C567.043 18.7467 567.261 19.36 567.261 20.16V25.76C567.261 25.92 567.181 26 567.021 26H566.141C565.981 26 565.901 25.92 565.901 25.76V25.2H565.821C565.736 25.3813 565.613 25.5413 565.453 25.68C565.315 25.7973 565.133 25.904 564.909 26C564.685 26.1067 564.403 26.16 564.061 26.16H562.941C561.341 26.16 560.541 25.3867 560.541 23.84V23.52ZM561.901 23.84C561.901 24.16 561.992 24.416 562.173 24.608C562.365 24.7893 562.621 24.88 562.941 24.88H564.221C564.701 24.88 565.101 24.72 565.421 24.4C565.741 24.08 565.901 23.68 565.901 23.2V22.48H562.941C562.621 22.48 562.365 22.576 562.173 22.768C561.992 22.9493 561.901 23.2 561.901 23.52V23.84ZM577.69 18.08C577.722 17.9947 577.764 17.936 577.818 17.904C577.882 17.8613 577.972 17.84 578.09 17.84H579.05C579.22 17.84 579.274 17.92 579.21 18.08L576.09 26C575.866 26.5653 575.647 27.04 575.434 27.424C575.22 27.808 574.991 28.1173 574.746 28.352C574.5 28.5973 574.234 28.7733 573.946 28.88C573.658 28.9867 573.332 29.04 572.97 29.04H572.65C572.49 29.04 572.41 28.96 572.41 28.8V28C572.41 27.84 572.49 27.76 572.65 27.76H572.97C573.375 27.76 573.706 27.6267 573.962 27.36C574.228 27.0933 574.484 26.64 574.73 26L571.61 18.08C571.546 17.92 571.599 17.84 571.77 17.84H572.73C572.847 17.84 572.932 17.8613 572.986 17.904C573.05 17.936 573.098 17.9947 573.13 18.08L575.37 24.08H575.45L577.69 18.08ZM581.758 23.68C581.758 24.0427 581.865 24.336 582.078 24.56C582.302 24.7733 582.595 24.88 582.958 24.88H584.798C585.161 24.88 585.449 24.7733 585.662 24.56C585.886 24.336 585.998 24.0427 585.998 23.68V23.28C585.998 23.12 586.078 23.04 586.238 23.04H587.118C587.278 23.04 587.358 23.12 587.358 23.28V23.68C587.358 24.48 587.139 25.0933 586.702 25.52C586.275 25.9467 585.641 26.16 584.798 26.16H582.958C582.115 26.16 581.475 25.9467 581.038 25.52C580.611 25.0933 580.398 24.48 580.398 23.68V20.16C580.398 19.36 580.611 18.7467 581.038 18.32C581.475 17.8933 582.115 17.68 582.958 17.68H584.798C585.641 17.68 586.275 17.8933 586.702 18.32C587.139 18.7467 587.358 19.36 587.358 20.16V20.56C587.358 20.72 587.278 20.8 587.118 20.8H586.238C586.078 20.8 585.998 20.72 585.998 20.56V20.16C585.998 19.7973 585.886 19.5093 585.662 19.296C585.449 19.072 585.161 18.96 584.798 18.96H582.958C582.595 18.96 582.302 19.072 582.078 19.296C581.865 19.5093 581.758 19.7973 581.758 20.16V23.68ZM591.085 23.84C590.925 24.64 590.653 25.2267 590.269 25.6C589.885 25.9733 589.33 26.16 588.605 26.16H588.365C588.205 26.16 588.125 26.08 588.125 25.92V25.12C588.125 24.96 588.205 24.88 588.365 24.88H588.605C588.882 24.88 589.117 24.7893 589.309 24.608C589.512 24.4267 589.65 24.1707 589.725 23.84L590.925 18.08C590.957 17.92 591.09 17.84 591.325 17.84H595.805C595.965 17.84 596.045 17.92 596.045 18.08V25.76C596.045 25.92 595.965 26 595.805 26H594.925C594.765 26 594.685 25.92 594.685 25.76V19.12H592.045L591.085 23.84ZM603.48 18.08C603.512 17.9947 603.555 17.936 603.608 17.904C603.672 17.8613 603.763 17.84 603.88 17.84H604.84C605.011 17.84 605.064 17.92 605 18.08L601.88 26C601.656 26.5653 601.437 27.04 601.224 27.424C601.011 27.808 600.781 28.1173 600.536 28.352C600.291 28.5973 600.024 28.7733 599.736 28.88C599.448 28.9867 599.123 29.04 598.76 29.04H598.44C598.28 29.04 598.2 28.96 598.2 28.8V28C598.2 27.84 598.28 27.76 598.44 27.76H598.76C599.165 27.76 599.496 27.6267 599.752 27.36C600.019 27.0933 600.275 26.64 600.52 26L597.4 18.08C597.336 17.92 597.389 17.84 597.56 17.84H598.52C598.637 17.84 598.723 17.8613 598.776 17.904C598.84 17.936 598.888 17.9947 598.92 18.08L601.16 24.08H601.24L603.48 18.08ZM606.589 26C606.429 26 606.349 25.92 606.349 25.76V18.08C606.349 17.92 606.429 17.84 606.589 17.84H611.869C612.029 17.84 612.109 17.92 612.109 18.08V18.88C612.109 19.04 612.029 19.12 611.869 19.12H607.709V25.76C607.709 25.92 607.629 26 607.469 26H606.589ZM619.916 17.84C620.076 17.84 620.156 17.92 620.156 18.08V25.76C620.156 25.92 620.076 26 619.916 26H619.036C618.876 26 618.796 25.92 618.796 25.76V19.92H618.716L614.876 25.76C614.822 25.8453 614.769 25.9093 614.716 25.952C614.662 25.984 614.556 26 614.396 26H613.436C613.276 26 613.196 25.92 613.196 25.76V18.08C613.196 17.92 613.276 17.84 613.436 17.84H614.316C614.476 17.84 614.556 17.92 614.556 18.08V23.92H614.636L618.476 18.08C618.529 17.9947 618.582 17.936 618.636 17.904C618.689 17.8613 618.796 17.84 618.956 17.84H619.916Z" fill="#7E7E82"/>
<path d="M890.44 20.44C890.44 18.5733 891.4 17.64 893.32 17.64H897C898.92 17.64 899.88 18.5733 899.88 20.44V21.08C899.88 21.24 899.8 21.32 899.64 21.32H898.6C898.44 21.32 898.36 21.24 898.36 21.08V20.44C898.36 19.5333 897.907 19.08 897 19.08H893.32C892.413 19.08 891.96 19.5333 891.96 20.44V26.36C891.96 27.2667 892.413 27.72 893.32 27.72H897C897.907 27.72 898.36 27.2667 898.36 26.36V25.72C898.36 25.56 898.44 25.48 898.6 25.48H899.64C899.8 25.48 899.88 25.56 899.88 25.72V26.36C899.88 28.2267 898.92 29.16 897 29.16H893.32C891.4 29.16 890.44 28.2267 890.44 26.36V20.44ZM907.76 29C907.6 29 907.52 28.92 907.52 28.76V22.12H903.44V28.76C903.44 28.92 903.36 29 903.2 29H902.32C902.16 29 902.08 28.92 902.08 28.76V21.08C902.08 20.92 902.16 20.84 902.32 20.84H908.64C908.8 20.84 908.88 20.92 908.88 21.08V28.76C908.88 28.92 908.8 29 908.64 29H907.76ZM916.759 24.2V23.16C916.759 22.7973 916.647 22.5093 916.423 22.296C916.21 22.072 915.922 21.96 915.559 21.96H913.639C913.277 21.96 912.983 22.072 912.759 22.296C912.546 22.5093 912.439 22.7973 912.439 23.16V24.2H916.759ZM912.439 25.48V26.68C912.439 27.0427 912.546 27.336 912.759 27.56C912.983 27.7733 913.277 27.88 913.639 27.88H915.559C915.922 27.88 916.21 27.7733 916.423 27.56C916.647 27.336 916.759 27.0427 916.759 26.68V26.6C916.759 26.44 916.839 26.36 916.999 26.36H917.879C918.039 26.36 918.119 26.44 918.119 26.6V26.68C918.119 27.48 917.901 28.0933 917.463 28.52C917.037 28.9467 916.402 29.16 915.559 29.16H913.639C912.797 29.16 912.157 28.9467 911.719 28.52C911.293 28.0933 911.079 27.48 911.079 26.68V23.16C911.079 22.36 911.293 21.7467 911.719 21.32C912.157 20.8933 912.797 20.68 913.639 20.68H915.559C916.402 20.68 917.037 20.8933 917.463 21.32C917.901 21.7467 918.119 22.36 918.119 23.16V25.24C918.119 25.4 918.039 25.48 917.879 25.48H912.439ZM920.561 29C920.401 29 920.321 28.92 920.321 28.76V21.08C920.321 20.92 920.401 20.84 920.561 20.84H921.441C921.601 20.84 921.681 20.92 921.681 21.08V27.72H925.601V21.08C925.601 20.92 925.681 20.84 925.841 20.84H926.721C926.881 20.84 926.961 20.92 926.961 21.08V27.96L928.401 29.56C928.443 29.6027 928.465 29.656 928.465 29.72C928.465 29.784 928.443 29.8373 928.401 29.88L927.681 30.52C927.563 30.616 927.457 30.616 927.361 30.52L926.001 29H920.561ZM936.263 20.84C936.423 20.84 936.503 20.92 936.503 21.08V28.76C936.503 28.92 936.423 29 936.263 29H935.383C935.223 29 935.143 28.92 935.143 28.76V22.92H935.063L931.223 28.76C931.169 28.8453 931.116 28.9093 931.063 28.952C931.009 28.984 930.903 29 930.743 29H929.783C929.623 29 929.543 28.92 929.543 28.76V21.08C929.543 20.92 929.623 20.84 929.783 20.84H930.663C930.823 20.84 930.903 20.92 930.903 21.08V26.92H930.983L934.823 21.08C934.876 20.9947 934.929 20.936 934.983 20.904C935.036 20.8613 935.143 20.84 935.303 20.84H936.263ZM938.538 26.52C938.538 24.9733 939.338 24.2 940.938 24.2H943.898V23.16C943.898 22.7973 943.786 22.5093 943.562 22.296C943.349 22.072 943.061 21.96 942.698 21.96H941.578C941.215 21.96 940.922 22.072 940.698 22.296C940.485 22.5093 940.378 22.7973 940.378 23.16C940.378 23.32 940.298 23.4 940.138 23.4H939.258C939.098 23.4 939.018 23.32 939.018 23.16C939.018 22.36 939.231 21.7467 939.658 21.32C940.095 20.8933 940.735 20.68 941.578 20.68H942.698C943.541 20.68 944.175 20.8933 944.602 21.32C945.039 21.7467 945.258 22.36 945.258 23.16V28.76C945.258 28.92 945.178 29 945.018 29H944.138C943.978 29 943.898 28.92 943.898 28.76V28.2H943.818C943.733 28.3813 943.61 28.5413 943.45 28.68C943.311 28.7973 943.13 28.904 942.906 29C942.682 29.1067 942.399 29.16 942.058 29.16H940.938C939.338 29.16 938.538 28.3867 938.538 26.84V26.52ZM939.898 26.84C939.898 27.16 939.989 27.416 940.17 27.608C940.362 27.7893 940.618 27.88 940.938 27.88H942.218C942.698 27.88 943.098 27.72 943.418 27.4C943.738 27.08 943.898 26.68 943.898 26.2V25.48H940.938C940.618 25.48 940.362 25.576 940.17 25.768C939.989 25.9493 939.898 26.2 939.898 26.52V26.84ZM949.291 26.84C949.131 27.64 948.859 28.2267 948.475 28.6C948.091 28.9733 947.537 29.16 946.811 29.16H946.571C946.411 29.16 946.331 29.08 946.331 28.92V28.12C946.331 27.96 946.411 27.88 946.571 27.88H946.811C947.089 27.88 947.323 27.7893 947.515 27.608C947.718 27.4267 947.857 27.1707 947.931 26.84L949.131 21.08C949.163 20.92 949.297 20.84 949.531 20.84H954.011C954.171 20.84 954.251 20.92 954.251 21.08V28.76C954.251 28.92 954.171 29 954.011 29H953.131C952.971 29 952.891 28.92 952.891 28.76V22.12H950.251L949.291 26.84ZM960.774 27.72C961.094 27.72 961.345 27.6293 961.526 27.448C961.718 27.256 961.814 27 961.814 26.68V25.88C961.814 25.56 961.718 25.3093 961.526 25.128C961.345 24.936 961.094 24.84 960.774 24.84H957.974V27.72H960.774ZM956.854 29C956.694 29 956.614 28.92 956.614 28.76V21.08C956.614 20.92 956.694 20.84 956.854 20.84H957.734C957.894 20.84 957.974 20.92 957.974 21.08V23.56H960.774C962.374 23.56 963.174 24.3333 963.174 25.88V26.68C963.174 28.2267 962.374 29 960.774 29H956.854ZM966.571 25.48V28.76C966.571 28.92 966.491 29 966.331 29H965.451C965.291 29 965.211 28.92 965.211 28.76V21.08C965.211 20.92 965.291 20.84 965.451 20.84H966.331C966.491 20.84 966.571 20.92 966.571 21.08V24.28H970.651V21.08C970.651 20.92 970.731 20.84 970.891 20.84H971.771C971.931 20.84 972.011 20.92 972.011 21.08V28.76C972.011 28.92 971.931 29 971.771 29H970.891C970.731 29 970.651 28.92 970.651 28.76V25.48H966.571ZM978.211 27.72C978.531 27.72 978.781 27.6293 978.963 27.448C979.155 27.256 979.251 27 979.251 26.68V25.88C979.251 25.56 979.155 25.3093 978.963 25.128C978.781 24.936 978.531 24.84 978.211 24.84H975.731V27.72H978.211ZM974.611 29C974.451 29 974.371 28.92 974.371 28.76V21.08C974.371 20.92 974.451 20.84 974.611 20.84H975.491C975.651 20.84 975.731 20.92 975.731 21.08V23.56H978.211C979.811 23.56 980.611 24.3333 980.611 25.88V26.68C980.611 28.2267 979.811 29 978.211 29H974.611ZM983.331 28.76C983.331 28.92 983.251 29 983.091 29H982.211C982.051 29 981.971 28.92 981.971 28.76V21.08C981.971 20.92 982.051 20.84 982.211 20.84H983.091C983.251 20.84 983.331 20.92 983.331 21.08V28.76ZM991.206 24.2V23.16C991.206 22.7973 991.094 22.5093 990.87 22.296C990.657 22.072 990.369 21.96 990.006 21.96H988.086C987.724 21.96 987.43 22.072 987.206 22.296C986.993 22.5093 986.886 22.7973 986.886 23.16V24.2H991.206ZM986.886 25.48V26.68C986.886 27.0427 986.993 27.336 987.206 27.56C987.43 27.7733 987.724 27.88 988.086 27.88H990.006C990.369 27.88 990.657 27.7733 990.87 27.56C991.094 27.336 991.206 27.0427 991.206 26.68V26.6C991.206 26.44 991.286 26.36 991.446 26.36H992.326C992.486 26.36 992.566 26.44 992.566 26.6V26.68C992.566 27.48 992.348 28.0933 991.91 28.52C991.484 28.9467 990.849 29.16 990.006 29.16H988.086C987.244 29.16 986.604 28.9467 986.166 28.52C985.74 28.0933 985.526 27.48 985.526 26.68V23.16C985.526 22.36 985.74 21.7467 986.166 21.32C986.604 20.8933 987.244 20.68 988.086 20.68H990.006C990.849 20.68 991.484 20.8933 991.91 21.32C992.348 21.7467 992.566 22.36 992.566 23.16V25.24C992.566 25.4 992.486 25.48 992.326 25.48H986.886ZM998.011 29C997.851 29 997.771 28.92 997.771 28.76V21.08C997.771 20.92 997.851 20.84 998.011 20.84H998.891C999.051 20.84 999.131 20.92 999.131 21.08V27.72H1003.05V21.08C1003.05 20.92 1003.13 20.84 1003.29 20.84H1004.17C1004.33 20.84 1004.41 20.92 1004.41 21.08V27.96L1005.85 29.56C1005.89 29.6027 1005.91 29.656 1005.91 29.72C1005.91 29.784 1005.89 29.8373 1005.85 29.88L1005.13 30.52C1005.01 30.616 1004.91 30.616 1004.81 30.52L1003.45 29H998.011ZM1012.51 24.2V23.16C1012.51 22.7973 1012.4 22.5093 1012.18 22.296C1011.96 22.072 1011.68 21.96 1011.31 21.96H1009.39C1009.03 21.96 1008.74 22.072 1008.51 22.296C1008.3 22.5093 1008.19 22.7973 1008.19 23.16V24.2H1012.51ZM1008.19 25.48V26.68C1008.19 27.0427 1008.3 27.336 1008.51 27.56C1008.74 27.7733 1009.03 27.88 1009.39 27.88H1011.31C1011.68 27.88 1011.96 27.7733 1012.18 27.56C1012.4 27.336 1012.51 27.0427 1012.51 26.68V26.6C1012.51 26.44 1012.59 26.36 1012.75 26.36H1013.63C1013.79 26.36 1013.87 26.44 1013.87 26.6V26.68C1013.87 27.48 1013.65 28.0933 1013.22 28.52C1012.79 28.9467 1012.16 29.16 1011.31 29.16H1009.39C1008.55 29.16 1007.91 28.9467 1007.47 28.52C1007.05 28.0933 1006.83 27.48 1006.83 26.68V23.16C1006.83 22.36 1007.05 21.7467 1007.47 21.32C1007.91 20.8933 1008.55 20.68 1009.39 20.68H1011.31C1012.16 20.68 1012.79 20.8933 1013.22 21.32C1013.65 21.7467 1013.87 22.36 1013.87 23.16V25.24C1013.87 25.4 1013.79 25.48 1013.63 25.48H1008.19ZM1017.43 25.48V28.76C1017.43 28.92 1017.35 29 1017.19 29H1016.31C1016.15 29 1016.07 28.92 1016.07 28.76V21.08C1016.07 20.92 1016.15 20.84 1016.31 20.84H1017.19C1017.35 20.84 1017.43 20.92 1017.43 21.08V24.28H1021.51V21.08C1021.51 20.92 1021.59 20.84 1021.75 20.84H1022.63C1022.79 20.84 1022.87 20.92 1022.87 21.08V28.76C1022.87 28.92 1022.79 29 1022.63 29H1021.75C1021.59 29 1021.51 28.92 1021.51 28.76V25.48H1017.43ZM1029.07 27.72C1029.39 27.72 1029.64 27.6293 1029.83 27.448C1030.02 27.256 1030.11 27 1030.11 26.68V25.88C1030.11 25.56 1030.02 25.3093 1029.83 25.128C1029.64 24.936 1029.39 24.84 1029.07 24.84H1026.59V27.72H1029.07ZM1025.47 29C1025.31 29 1025.23 28.92 1025.23 28.76V21.08C1025.23 20.92 1025.31 20.84 1025.47 20.84H1026.35C1026.51 20.84 1026.59 20.92 1026.59 21.08V23.56H1029.07C1030.67 23.56 1031.47 24.3333 1031.47 25.88V26.68C1031.47 28.2267 1030.67 29 1029.07 29H1025.47ZM1034.19 28.76C1034.19 28.92 1034.11 29 1033.95 29H1033.07C1032.91 29 1032.83 28.92 1032.83 28.76V21.08C1032.83 20.92 1032.91 20.84 1033.07 20.84H1033.95C1034.11 20.84 1034.19 20.92 1034.19 21.08V28.76Z" fill="#7E7E82"/>
<path d="M25.44 63.44C25.44 61.5733 26.4 60.64 28.32 60.64H32.32C34.24 60.64 35.2 61.5733 35.2 63.44V69.36C35.2 71.2267 34.24 72.16 32.32 72.16H28.32C26.4 72.16 25.44 71.2267 25.44 69.36V63.44ZM33.68 63.44C33.68 62.5333 33.2267 62.08 32.32 62.08H28.32C27.4133 62.08 26.96 62.5333 26.96 63.44V69.36C26.96 70.2667 27.4133 70.72 28.32 70.72H32.32C33.2267 70.72 33.68 70.2667 33.68 69.36V63.44ZM39.5606 72C39.4006 72 39.3206 71.92 39.3206 71.76V65.12H36.8406C36.6806 65.12 36.6006 65.04 36.6006 64.88V64.08C36.6006 63.92 36.6806 63.84 36.8406 63.84H43.1606C43.3206 63.84 43.4006 63.92 43.4006 64.08V64.88C43.4006 65.04 43.3206 65.12 43.1606 65.12H40.6806V71.76C40.6806 71.92 40.6006 72 40.4406 72H39.5606ZM46.7256 72.16C45.883 72.16 45.243 71.9467 44.8056 71.52C44.379 71.0933 44.1656 70.48 44.1656 69.68V69.28C44.1656 69.12 44.2456 69.04 44.4056 69.04H45.2856C45.4456 69.04 45.5256 69.12 45.5256 69.28V69.68C45.5256 70.0427 45.6323 70.336 45.8456 70.56C46.0696 70.7733 46.363 70.88 46.7256 70.88H48.8056C49.1256 70.88 49.3763 70.7893 49.5576 70.608C49.7496 70.416 49.8456 70.16 49.8456 69.84V69.52C49.8456 69.2 49.7496 68.9493 49.5576 68.768C49.3763 68.576 49.1256 68.48 48.8056 68.48H47.4456C47.2856 68.48 47.2056 68.4 47.2056 68.24V67.44C47.2056 67.28 47.2856 67.2 47.4456 67.2H48.6456C48.9656 67.2 49.2163 67.1093 49.3976 66.928C49.5896 66.736 49.6856 66.48 49.6856 66.16V66C49.6856 65.68 49.5896 65.4293 49.3976 65.248C49.2163 65.056 48.9656 64.96 48.6456 64.96H46.8856C46.523 64.96 46.2296 65.072 46.0056 65.296C45.7923 65.5093 45.6856 65.7973 45.6856 66.16V66.56C45.6856 66.72 45.6056 66.8 45.4456 66.8H44.5656C44.4056 66.8 44.3256 66.72 44.3256 66.56V66.16C44.3256 65.36 44.539 64.7467 44.9656 64.32C45.403 63.8933 46.043 63.68 46.8856 63.68H48.6456C50.2456 63.68 51.0456 64.4533 51.0456 66V66.16C51.0456 66.48 50.9816 66.7413 50.8536 66.944C50.7256 67.136 50.587 67.2907 50.4376 67.408C50.2563 67.536 50.059 67.6267 49.8456 67.68V67.76C50.1016 67.8133 50.3256 67.9147 50.5176 68.064C50.6883 68.192 50.843 68.3733 50.9816 68.608C51.131 68.8427 51.2056 69.1467 51.2056 69.52V69.84C51.2056 71.3867 50.4056 72.16 48.8056 72.16H46.7256ZM57.0825 70.72C57.4025 70.72 57.6532 70.6293 57.8345 70.448C58.0265 70.256 58.1225 70 58.1225 69.68V68.88C58.1225 68.56 58.0265 68.3093 57.8345 68.128C57.6532 67.936 57.4025 67.84 57.0825 67.84H54.6025V70.72H57.0825ZM53.4825 72C53.3225 72 53.2425 71.92 53.2425 71.76V64.08C53.2425 63.92 53.3225 63.84 53.4825 63.84H54.3625C54.5225 63.84 54.6025 63.92 54.6025 64.08V66.56H57.0825C58.6825 66.56 59.4825 67.3333 59.4825 68.88V69.68C59.4825 71.2267 58.6825 72 57.0825 72H53.4825ZM62.2025 71.76C62.2025 71.92 62.1225 72 61.9625 72H61.0825C60.9225 72 60.8425 71.92 60.8425 71.76V64.08C60.8425 63.92 60.9225 63.84 61.0825 63.84H61.9625C62.1225 63.84 62.2025 63.92 62.2025 64.08V71.76ZM68.9581 70.72C69.2781 70.72 69.5288 70.6293 69.7101 70.448C69.9021 70.256 69.9981 70 69.9981 69.68V69.52C69.9981 69.2 69.9021 68.9493 69.7101 68.768C69.5288 68.576 69.2781 68.48 68.9581 68.48H65.9181V70.72H68.9581ZM68.4781 67.2C68.7981 67.2 69.0488 67.1093 69.2301 66.928C69.4221 66.736 69.5181 66.48 69.5181 66.16C69.5181 65.84 69.4221 65.5893 69.2301 65.408C69.0488 65.216 68.7981 65.12 68.4781 65.12H65.9181V67.2H68.4781ZM64.7981 72C64.6381 72 64.5581 71.92 64.5581 71.76V64.08C64.5581 63.92 64.6381 63.84 64.7981 63.84H68.4781C70.0781 63.84 70.8781 64.6133 70.8781 66.16C70.8781 66.48 70.8195 66.7413 70.7021 66.944C70.5955 67.136 70.4781 67.2907 70.3501 67.408C70.2008 67.536 70.0301 67.6267 69.8381 67.68V67.76C70.1155 67.8133 70.3661 67.9147 70.5901 68.064C70.7821 68.192 70.9581 68.3733 71.1181 68.608C71.2781 68.8427 71.3581 69.1467 71.3581 69.52V69.68C71.3581 71.2267 70.5581 72 68.9581 72H64.7981ZM77.0731 70.72C77.3931 70.72 77.6438 70.6293 77.8251 70.448C78.0171 70.256 78.1131 70 78.1131 69.68V68.88C78.1131 68.56 78.0171 68.3093 77.8251 68.128C77.6438 67.936 77.3931 67.84 77.0731 67.84H74.5931V70.72H77.0731ZM73.4731 72C73.3131 72 73.2331 71.92 73.2331 71.76V64.08C73.2331 63.92 73.3131 63.84 73.4731 63.84H74.3531C74.5131 63.84 74.5931 63.92 74.5931 64.08V66.56H77.0731C78.6731 66.56 79.4731 67.3333 79.4731 68.88V69.68C79.4731 71.2267 78.6731 72 77.0731 72H73.4731ZM82.1931 71.76C82.1931 71.92 82.1131 72 81.9531 72H81.0731C80.9131 72 80.8331 71.92 80.8331 71.76V64.08C80.8331 63.92 80.9131 63.84 81.0731 63.84H81.9531C82.1131 63.84 82.1931 63.92 82.1931 64.08V71.76Z" fill="#7E7E82"/>
</svg>
