<svg width="125" height="24" viewBox="0 0 125 24" fill="none" xmlns="http://www.w3.org/2000/svg">
<path d="M2.14625 8.44C2.14625 6.57333 3.10625 5.64 5.02625 5.64H9.02625C10.9463 5.64 11.9063 6.57333 11.9063 8.44V14.36C11.9063 16.2267 10.9463 17.16 9.02625 17.16H5.02625C3.10625 17.16 2.14625 16.2267 2.14625 14.36V8.44ZM10.3863 8.44C10.3863 7.53333 9.93292 7.08 9.02625 7.08H5.02625C4.11959 7.08 3.66625 7.53333 3.66625 8.44V14.36C3.66625 15.2667 4.11959 15.72 5.02625 15.72H9.02625C9.93292 15.72 10.3863 15.2667 10.3863 14.36V8.44ZM15.6269 14.68C15.6269 15.0427 15.7335 15.336 15.9469 15.56C16.1709 15.7733 16.4642 15.88 16.8269 15.88H18.6669C19.0295 15.88 19.3175 15.7733 19.5309 15.56C19.7549 15.336 19.8669 15.0427 19.8669 14.68V14.28C19.8669 14.12 19.9469 14.04 20.1069 14.04H20.9869C21.1469 14.04 21.2269 14.12 21.2269 14.28V14.68C21.2269 15.48 21.0082 16.0933 20.5709 16.52C20.1442 16.9467 19.5095 17.16 18.6669 17.16H16.8269C15.9842 17.16 15.3442 16.9467 14.9069 16.52C14.4802 16.0933 14.2669 15.48 14.2669 14.68V11.16C14.2669 10.36 14.4802 9.74667 14.9069 9.32C15.3442 8.89333 15.9842 8.68 16.8269 8.68H18.6669C19.5095 8.68 20.1442 8.89333 20.5709 9.32C21.0082 9.74667 21.2269 10.36 21.2269 11.16V11.56C21.2269 11.72 21.1469 11.8 20.9869 11.8H20.1069C19.9469 11.8 19.8669 11.72 19.8669 11.56V11.16C19.8669 10.7973 19.7549 10.5093 19.5309 10.296C19.3175 10.072 19.0295 9.96 18.6669 9.96H16.8269C16.4642 9.96 16.1709 10.072 15.9469 10.296C15.7335 10.5093 15.6269 10.7973 15.6269 11.16V14.68ZM25.1138 17C24.9538 17 24.8738 16.92 24.8738 16.76V10.12H22.3938C22.2338 10.12 22.1538 10.04 22.1538 9.88V9.08C22.1538 8.92 22.2338 8.84 22.3938 8.84H28.7138C28.8738 8.84 28.9538 8.92 28.9538 9.08V9.88C28.9538 10.04 28.8738 10.12 28.7138 10.12H26.2338V16.76C26.2338 16.92 26.1538 17 25.9938 17H25.1138ZM29.8788 14.52C29.8788 12.9733 30.6788 12.2 32.2788 12.2H35.2388V11.16C35.2388 10.7973 35.1268 10.5093 34.9028 10.296C34.6894 10.072 34.4014 9.96 34.0388 9.96H32.9188C32.5561 9.96 32.2628 10.072 32.0388 10.296C31.8254 10.5093 31.7188 10.7973 31.7188 11.16C31.7188 11.32 31.6388 11.4 31.4788 11.4H30.5988C30.4388 11.4 30.3588 11.32 30.3588 11.16C30.3588 10.36 30.5721 9.74667 30.9988 9.32C31.4361 8.89333 32.0761 8.68 32.9188 8.68H34.0388C34.8814 8.68 35.5161 8.89333 35.9428 9.32C36.3801 9.74667 36.5988 10.36 36.5988 11.16V16.76C36.5988 16.92 36.5188 17 36.3588 17H35.4788C35.3188 17 35.2388 16.92 35.2388 16.76V16.2H35.1588C35.0734 16.3813 34.9508 16.5413 34.7908 16.68C34.6521 16.7973 34.4708 16.904 34.2468 17C34.0228 17.1067 33.7401 17.16 33.3988 17.16H32.2788C30.6788 17.16 29.8788 16.3867 29.8788 14.84V14.52ZM31.2388 14.84C31.2388 15.16 31.3294 15.416 31.5108 15.608C31.7028 15.7893 31.9588 15.88 32.2788 15.88H33.5588C34.0388 15.88 34.4388 15.72 34.7588 15.4C35.0788 15.08 35.2388 14.68 35.2388 14.2V13.48H32.2788C31.9588 13.48 31.7028 13.576 31.5108 13.768C31.3294 13.9493 31.2388 14.2 31.2388 14.52V14.84ZM43.3519 15.72C43.6719 15.72 43.9225 15.6293 44.1039 15.448C44.2959 15.256 44.3919 15 44.3919 14.68V14.52C44.3919 14.2 44.2959 13.9493 44.1039 13.768C43.9225 13.576 43.6719 13.48 43.3519 13.48H40.3119V15.72H43.3519ZM42.8719 12.2C43.1919 12.2 43.4425 12.1093 43.6239 11.928C43.8159 11.736 43.9119 11.48 43.9119 11.16C43.9119 10.84 43.8159 10.5893 43.6239 10.408C43.4425 10.216 43.1919 10.12 42.8719 10.12H40.3119V12.2H42.8719ZM39.1919 17C39.0319 17 38.9519 16.92 38.9519 16.76V9.08C38.9519 8.92 39.0319 8.84 39.1919 8.84H42.8719C44.4719 8.84 45.2719 9.61333 45.2719 11.16C45.2719 11.48 45.2132 11.7413 45.0959 11.944C44.9892 12.136 44.8719 12.2907 44.7439 12.408C44.5945 12.536 44.4239 12.6267 44.2319 12.68V12.76C44.5092 12.8133 44.7599 12.9147 44.9839 13.064C45.1759 13.192 45.3519 13.3733 45.5119 13.608C45.6719 13.8427 45.7519 14.1467 45.7519 14.52V14.68C45.7519 16.2267 44.9519 17 43.3519 17H39.1919ZM54.3469 8.84C54.5069 8.84 54.5869 8.92 54.5869 9.08V16.76C54.5869 16.92 54.5069 17 54.3469 17H53.4669C53.3069 17 53.2269 16.92 53.2269 16.76V10.92H53.1469L49.3069 16.76C49.2535 16.8453 49.2002 16.9093 49.1469 16.952C49.0935 16.984 48.9869 17 48.8269 17H47.8669C47.7069 17 47.6269 16.92 47.6269 16.76V9.08C47.6269 8.92 47.7069 8.84 47.8669 8.84H48.7469C48.9069 8.84 48.9869 8.92 48.9869 9.08V14.92H49.0669L52.9069 9.08C52.9602 8.99467 53.0135 8.936 53.0669 8.904C53.1202 8.86133 53.2269 8.84 53.3869 8.84H54.3469ZM58.7825 17C58.6225 17 58.5425 16.92 58.5425 16.76V10.12H56.0625C55.9025 10.12 55.8225 10.04 55.8225 9.88V9.08C55.8225 8.92 55.9025 8.84 56.0625 8.84H62.3825C62.5425 8.84 62.6225 8.92 62.6225 9.08V9.88C62.6225 10.04 62.5425 10.12 62.3825 10.12H59.9025V16.76C59.9025 16.92 59.8225 17 59.6625 17H58.7825ZM68.0275 15.72C68.3475 15.72 68.5982 15.6293 68.7795 15.448C68.9715 15.256 69.0675 15 69.0675 14.68V13.88C69.0675 13.56 68.9715 13.3093 68.7795 13.128C68.5982 12.936 68.3475 12.84 68.0275 12.84H65.2275V15.72H68.0275ZM64.1075 17C63.9475 17 63.8675 16.92 63.8675 16.76V9.08C63.8675 8.92 63.9475 8.84 64.1075 8.84H64.9875C65.1475 8.84 65.2275 8.92 65.2275 9.08V11.56H68.0275C69.6275 11.56 70.4275 12.3333 70.4275 13.88V14.68C70.4275 16.2267 69.6275 17 68.0275 17H64.1075ZM77.5475 17.16C76.7048 17.16 76.0648 16.9467 75.6275 16.52C75.2008 16.0933 74.9875 15.48 74.9875 14.68V14.28C74.9875 14.12 75.0675 14.04 75.2275 14.04H76.1075C76.2675 14.04 76.3475 14.12 76.3475 14.28V14.68C76.3475 15.0427 76.4542 15.336 76.6675 15.56C76.8915 15.7733 77.1848 15.88 77.5475 15.88H79.6275C79.9475 15.88 80.1982 15.7893 80.3795 15.608C80.5715 15.416 80.6675 15.16 80.6675 14.84V14.52C80.6675 14.2 80.5715 13.9493 80.3795 13.768C80.1982 13.576 79.9475 13.48 79.6275 13.48H78.2675C78.1075 13.48 78.0275 13.4 78.0275 13.24V12.44C78.0275 12.28 78.1075 12.2 78.2675 12.2H79.4675C79.7875 12.2 80.0382 12.1093 80.2195 11.928C80.4115 11.736 80.5075 11.48 80.5075 11.16V11C80.5075 10.68 80.4115 10.4293 80.2195 10.248C80.0382 10.056 79.7875 9.96 79.4675 9.96H77.7075C77.3448 9.96 77.0515 10.072 76.8275 10.296C76.6142 10.5093 76.5075 10.7973 76.5075 11.16V11.56C76.5075 11.72 76.4275 11.8 76.2675 11.8H75.3875C75.2275 11.8 75.1475 11.72 75.1475 11.56V11.16C75.1475 10.36 75.3608 9.74667 75.7875 9.32C76.2248 8.89333 76.8648 8.68 77.7075 8.68H79.4675C81.0675 8.68 81.8675 9.45333 81.8675 11V11.16C81.8675 11.48 81.8035 11.7413 81.6755 11.944C81.5475 12.136 81.4088 12.2907 81.2595 12.408C81.0782 12.536 80.8808 12.6267 80.6675 12.68V12.76C80.9235 12.8133 81.1475 12.9147 81.3395 13.064C81.5102 13.192 81.6648 13.3733 81.8035 13.608C81.9528 13.8427 82.0275 14.1467 82.0275 14.52V14.84C82.0275 16.3867 81.2275 17.16 79.6275 17.16H77.5475ZM83.7444 14.52C83.7444 12.9733 84.5444 12.2 86.1444 12.2H89.1044V11.16C89.1044 10.7973 88.9924 10.5093 88.7684 10.296C88.555 10.072 88.267 9.96 87.9044 9.96H86.7844C86.4217 9.96 86.1284 10.072 85.9044 10.296C85.691 10.5093 85.5844 10.7973 85.5844 11.16C85.5844 11.32 85.5044 11.4 85.3444 11.4H84.4644C84.3044 11.4 84.2244 11.32 84.2244 11.16C84.2244 10.36 84.4377 9.74667 84.8644 9.32C85.3017 8.89333 85.9417 8.68 86.7844 8.68H87.9044C88.747 8.68 89.3817 8.89333 89.8084 9.32C90.2457 9.74667 90.4644 10.36 90.4644 11.16V16.76C90.4644 16.92 90.3844 17 90.2244 17H89.3444C89.1844 17 89.1044 16.92 89.1044 16.76V16.2H89.0244C88.939 16.3813 88.8164 16.5413 88.6564 16.68C88.5177 16.7973 88.3364 16.904 88.1124 17C87.8884 17.1067 87.6057 17.16 87.2644 17.16H86.1444C84.5444 17.16 83.7444 16.3867 83.7444 14.84V14.52ZM85.1044 14.84C85.1044 15.16 85.195 15.416 85.3764 15.608C85.5684 15.7893 85.8244 15.88 86.1444 15.88H87.4244C87.9044 15.88 88.3044 15.72 88.6244 15.4C88.9444 15.08 89.1044 14.68 89.1044 14.2V13.48H86.1444C85.8244 13.48 85.5684 13.576 85.3764 13.768C85.195 13.9493 85.1044 14.2 85.1044 14.52V14.84ZM98.7055 8.84C98.8655 8.84 98.9455 8.92 98.9455 9.08V16.76C98.9455 16.92 98.8655 17 98.7055 17H97.8255C97.6655 17 97.5855 16.92 97.5855 16.76V14.28H95.2655L93.9055 16.76C93.8628 16.8453 93.8148 16.9093 93.7615 16.952C93.7082 16.984 93.6228 17 93.5055 17H92.5455C92.4602 17 92.3962 16.984 92.3535 16.952C92.3215 16.9093 92.3322 16.8453 92.3855 16.76L93.8255 14.12C93.5482 14.0667 93.3082 13.9493 93.1055 13.768C92.9242 13.6187 92.7588 13.4 92.6095 13.112C92.4602 12.824 92.3855 12.44 92.3855 11.96V11.16C92.3855 9.61333 93.1855 8.84 94.7855 8.84H98.7055ZM94.7855 10.12C94.4655 10.12 94.2095 10.216 94.0175 10.408C93.8362 10.5893 93.7455 10.84 93.7455 11.16V11.96C93.7455 12.28 93.8362 12.536 94.0175 12.728C94.2095 12.9093 94.4655 13 94.7855 13H97.5855V10.12H94.7855ZM105.705 15.72C106.025 15.72 106.276 15.6293 106.457 15.448C106.649 15.256 106.745 15 106.745 14.68V14.52C106.745 14.2 106.649 13.9493 106.457 13.768C106.276 13.576 106.025 13.48 105.705 13.48H102.665V15.72H105.705ZM105.225 12.2C105.545 12.2 105.796 12.1093 105.977 11.928C106.169 11.736 106.265 11.48 106.265 11.16C106.265 10.84 106.169 10.5893 105.977 10.408C105.796 10.216 105.545 10.12 105.225 10.12H102.665V12.2H105.225ZM101.545 17C101.385 17 101.305 16.92 101.305 16.76V9.08C101.305 8.92 101.385 8.84 101.545 8.84H105.225C106.825 8.84 107.625 9.61333 107.625 11.16C107.625 11.48 107.566 11.7413 107.449 11.944C107.342 12.136 107.225 12.2907 107.097 12.408C106.948 12.536 106.777 12.6267 106.585 12.68V12.76C106.862 12.8133 107.113 12.9147 107.337 13.064C107.529 13.192 107.705 13.3733 107.865 13.608C108.025 13.8427 108.105 14.1467 108.105 14.52V14.68C108.105 16.2267 107.305 17 105.705 17H101.545ZM113.34 13.32H111.34V16.76C111.34 16.92 111.26 17 111.1 17H110.22C110.06 17 109.98 16.92 109.98 16.76V9.08C109.98 8.92 110.06 8.84 110.22 8.84H111.1C111.26 8.84 111.34 8.92 111.34 9.08V12.04H113.34L114.94 9.08C114.983 8.99467 115.031 8.936 115.084 8.904C115.137 8.86133 115.223 8.84 115.34 8.84H116.3C116.481 8.84 116.535 8.92 116.46 9.08L114.46 12.68L116.7 16.76C116.775 16.92 116.721 17 116.54 17H115.58C115.463 17 115.377 16.984 115.324 16.952C115.271 16.9093 115.223 16.8453 115.18 16.76L113.34 13.32ZM123.211 9.08C123.243 8.99467 123.286 8.936 123.339 8.904C123.403 8.86133 123.494 8.84 123.611 8.84H124.571C124.742 8.84 124.795 8.92 124.731 9.08L121.611 17C121.387 17.5653 121.169 18.04 120.955 18.424C120.742 18.808 120.513 19.1173 120.267 19.352C120.022 19.5973 119.755 19.7733 119.467 19.88C119.179 19.9867 118.854 20.04 118.491 20.04H118.171C118.011 20.04 117.931 19.96 117.931 19.8V19C117.931 18.84 118.011 18.76 118.171 18.76H118.491C118.897 18.76 119.227 18.6267 119.483 18.36C119.75 18.0933 120.006 17.64 120.251 17L117.131 9.08C117.067 8.92 117.121 8.84 117.291 8.84H118.251C118.369 8.84 118.454 8.86133 118.507 8.904C118.571 8.936 118.619 8.99467 118.651 9.08L120.891 15.08H120.971L123.211 9.08Z" fill="#1B1C21"/>
</svg>
