<svg width="760" height="40" viewBox="0 0 760 40" fill="none" xmlns="http://www.w3.org/2000/svg">
<rect x="-1" y="1" width="246" height="38" rx="5" transform="matrix(-1 0 0 1 246 0)" fill="white" stroke="#B8FFEC" stroke-width="2"/>
<path d="M24.3523 20.04C25.2589 20.04 25.7123 19.5867 25.7123 18.68V16.6C25.7123 15.6933 25.2589 15.24 24.3523 15.24H19.7923V20.04H24.3523ZM19.7923 21.48V24.76C19.7923 24.92 19.7123 25 19.5523 25H18.5123C18.3523 25 18.2723 24.92 18.2723 24.76V14.04C18.2723 13.88 18.3523 13.8 18.5123 13.8H24.3523C26.2723 13.8 27.2323 14.7333 27.2323 16.6V18.68C27.2323 20.5467 26.2723 21.48 24.3523 21.48H19.7923ZM34.9598 20.2V19.16C34.9598 18.7973 34.8478 18.5093 34.6238 18.296C34.4104 18.072 34.1224 17.96 33.7598 17.96H31.8398C31.4771 17.96 31.1838 18.072 30.9598 18.296C30.7464 18.5093 30.6398 18.7973 30.6398 19.16V20.2H34.9598ZM30.6398 21.48V22.68C30.6398 23.0427 30.7464 23.336 30.9598 23.56C31.1838 23.7733 31.4771 23.88 31.8398 23.88H33.7598C34.1224 23.88 34.4104 23.7733 34.6238 23.56C34.8478 23.336 34.9598 23.0427 34.9598 22.68V22.6C34.9598 22.44 35.0398 22.36 35.1998 22.36H36.0798C36.2398 22.36 36.3198 22.44 36.3198 22.6V22.68C36.3198 23.48 36.1011 24.0933 35.6638 24.52C35.2371 24.9467 34.6024 25.16 33.7598 25.16H31.8398C30.9971 25.16 30.3571 24.9467 29.9198 24.52C29.4931 24.0933 29.2798 23.48 29.2798 22.68V19.16C29.2798 18.36 29.4931 17.7467 29.9198 17.32C30.3571 16.8933 30.9971 16.68 31.8398 16.68H33.7598C34.6024 16.68 35.2371 16.8933 35.6638 17.32C36.1011 17.7467 36.3198 18.36 36.3198 19.16V21.24C36.3198 21.4 36.2398 21.48 36.0798 21.48H30.6398ZM43.161 23.24L46.041 17.08C46.0837 16.9947 46.1317 16.936 46.185 16.904C46.249 16.8613 46.361 16.84 46.521 16.84H47.481C47.641 16.84 47.721 16.92 47.721 17.08V24.76C47.721 24.92 47.641 25 47.481 25H46.601C46.441 25 46.361 24.92 46.361 24.76V19.48H46.281L43.801 24.76C43.7584 24.8453 43.705 24.9093 43.641 24.952C43.5877 24.984 43.481 25 43.321 25H42.921C42.761 25 42.649 24.984 42.585 24.952C42.5317 24.9093 42.4837 24.8453 42.441 24.76L39.961 19.48H39.881V24.76C39.881 24.92 39.801 25 39.641 25H38.761C38.601 25 38.521 24.92 38.521 24.76V17.08C38.521 16.92 38.601 16.84 38.761 16.84H39.721C39.881 16.84 39.9877 16.8613 40.041 16.904C40.105 16.936 40.1584 16.9947 40.201 17.08L43.081 23.24H43.161ZM55.6866 19.16C55.6866 18.7973 55.5746 18.5093 55.3506 18.296C55.1373 18.072 54.8493 17.96 54.4866 17.96H52.4866C52.124 17.96 51.8306 18.072 51.6066 18.296C51.3933 18.5093 51.2866 18.7973 51.2866 19.16V22.68C51.2866 23.0427 51.3933 23.336 51.6066 23.56C51.8306 23.7733 52.124 23.88 52.4866 23.88H54.4866C54.8493 23.88 55.1373 23.7733 55.3506 23.56C55.5746 23.336 55.6866 23.0427 55.6866 22.68V19.16ZM57.0466 22.68C57.0466 23.48 56.828 24.0933 56.3906 24.52C55.964 24.9467 55.3293 25.16 54.4866 25.16H52.4866C51.644 25.16 51.004 24.9467 50.5666 24.52C50.14 24.0933 49.9266 23.48 49.9266 22.68V19.16C49.9266 18.36 50.14 17.7467 50.5666 17.32C51.004 16.8933 51.644 16.68 52.4866 16.68H54.4866C55.3293 16.68 55.964 16.8933 56.3906 17.32C56.828 17.7467 57.0466 18.36 57.0466 19.16V22.68ZM60.606 21.48V24.76C60.606 24.92 60.526 25 60.366 25H59.486C59.326 25 59.246 24.92 59.246 24.76V17.08C59.246 16.92 59.326 16.84 59.486 16.84H60.366C60.526 16.84 60.606 16.92 60.606 17.08V20.28H64.686V17.08C64.686 16.92 64.766 16.84 64.926 16.84H65.806C65.966 16.84 66.046 16.92 66.046 17.08V24.76C66.046 24.92 65.966 25 65.806 25H64.926C64.766 25 64.686 24.92 64.686 24.76V21.48H60.606ZM70.2454 25C70.0854 25 70.0054 24.92 70.0054 24.76V18.12H67.5254C67.3654 18.12 67.2854 18.04 67.2854 17.88V17.08C67.2854 16.92 67.3654 16.84 67.5254 16.84H73.8454C74.0054 16.84 74.0854 16.92 74.0854 17.08V17.88C74.0854 18.04 74.0054 18.12 73.8454 18.12H71.3654V24.76C71.3654 24.92 71.2854 25 71.1254 25H70.2454ZM82.0504 16.84C82.2104 16.84 82.2904 16.92 82.2904 17.08V24.76C82.2904 24.92 82.2104 25 82.0504 25H81.1704C81.0104 25 80.9304 24.92 80.9304 24.76V18.92H80.8504L77.0104 24.76C76.9571 24.8453 76.9037 24.9093 76.8504 24.952C76.7971 24.984 76.6904 25 76.5304 25H75.5704C75.4104 25 75.3304 24.92 75.3304 24.76V17.08C75.3304 16.92 75.4104 16.84 75.5704 16.84H76.4504C76.6104 16.84 76.6904 16.92 76.6904 17.08V22.92H76.7704L80.6104 17.08C80.6637 16.9947 80.7171 16.936 80.7704 16.904C80.8237 16.8613 80.9304 16.84 81.0904 16.84H82.0504ZM89.046 23.72C89.4087 23.72 89.6967 23.6133 89.91 23.4C90.134 23.176 90.246 22.8827 90.246 22.52V19.16C90.246 18.7973 90.134 18.5093 89.91 18.296C89.6967 18.072 89.4087 17.96 89.046 17.96H87.686C87.206 17.96 86.806 18.12 86.486 18.44C86.166 18.76 86.006 19.16 86.006 19.64V23.72H89.046ZM86.006 25V27.8C86.006 27.96 85.926 28.04 85.766 28.04H84.886C84.726 28.04 84.646 27.96 84.646 27.8V17.08C84.646 16.92 84.726 16.84 84.886 16.84H85.766C85.926 16.84 86.006 16.92 86.006 17.08V17.64H86.086C86.1714 17.4587 86.294 17.2987 86.454 17.16C86.5927 17.0427 86.774 16.936 86.998 16.84C87.222 16.7333 87.5047 16.68 87.846 16.68H89.046C89.8887 16.68 90.5234 16.8933 90.95 17.32C91.3874 17.7467 91.606 18.36 91.606 19.16V22.52C91.606 23.32 91.3874 23.9333 90.95 24.36C90.5234 24.7867 89.8887 25 89.046 25H86.006ZM98.8774 17.08C98.9094 16.9947 98.9521 16.936 99.0054 16.904C99.0694 16.8613 99.1601 16.84 99.2774 16.84H100.237C100.408 16.84 100.461 16.92 100.397 17.08L97.2774 25C97.0534 25.5653 96.8347 26.04 96.6214 26.424C96.4081 26.808 96.1787 27.1173 95.9334 27.352C95.6881 27.5973 95.4214 27.7733 95.1334 27.88C94.8454 27.9867 94.5201 28.04 94.1574 28.04H93.8374C93.6774 28.04 93.5974 27.96 93.5974 27.8V27C93.5974 26.84 93.6774 26.76 93.8374 26.76H94.1574C94.5627 26.76 94.8934 26.6267 95.1494 26.36C95.4161 26.0933 95.6721 25.64 95.9174 25L92.7974 17.08C92.7334 16.92 92.7867 16.84 92.9574 16.84H93.9174C94.0347 16.84 94.1201 16.8613 94.1734 16.904C94.2374 16.936 94.2854 16.9947 94.3174 17.08L96.5574 23.08H96.6374L98.8774 17.08ZM107.266 20.2V19.16C107.266 18.7973 107.154 18.5093 106.93 18.296C106.717 18.072 106.429 17.96 106.066 17.96H104.146C103.783 17.96 103.49 18.072 103.266 18.296C103.053 18.5093 102.946 18.7973 102.946 19.16V20.2H107.266ZM102.946 21.48V22.68C102.946 23.0427 103.053 23.336 103.266 23.56C103.49 23.7733 103.783 23.88 104.146 23.88H106.066C106.429 23.88 106.717 23.7733 106.93 23.56C107.154 23.336 107.266 23.0427 107.266 22.68V22.6C107.266 22.44 107.346 22.36 107.506 22.36H108.386C108.546 22.36 108.626 22.44 108.626 22.6V22.68C108.626 23.48 108.407 24.0933 107.97 24.52C107.543 24.9467 106.909 25.16 106.066 25.16H104.146C103.303 25.16 102.663 24.9467 102.226 24.52C101.799 24.0933 101.586 23.48 101.586 22.68V19.16C101.586 18.36 101.799 17.7467 102.226 17.32C102.663 16.8933 103.303 16.68 104.146 16.68H106.066C106.909 16.68 107.543 16.8933 107.97 17.32C108.407 17.7467 108.626 18.36 108.626 19.16V21.24C108.626 21.4 108.546 21.48 108.386 21.48H102.946ZM115.467 23.24L118.347 17.08C118.39 16.9947 118.438 16.936 118.491 16.904C118.555 16.8613 118.667 16.84 118.827 16.84H119.787C119.947 16.84 120.027 16.92 120.027 17.08V24.76C120.027 24.92 119.947 25 119.787 25H118.907C118.747 25 118.667 24.92 118.667 24.76V19.48H118.587L116.107 24.76C116.065 24.8453 116.011 24.9093 115.947 24.952C115.894 24.984 115.787 25 115.627 25H115.227C115.067 25 114.955 24.984 114.891 24.952C114.838 24.9093 114.79 24.8453 114.747 24.76L112.267 19.48H112.187V24.76C112.187 24.92 112.107 25 111.947 25H111.067C110.907 25 110.827 24.92 110.827 24.76V17.08C110.827 16.92 110.907 16.84 111.067 16.84H112.027C112.187 16.84 112.294 16.8613 112.347 16.904C112.411 16.936 112.465 16.9947 112.507 17.08L115.387 23.24H115.467ZM126.233 23.72C126.553 23.72 126.804 23.6293 126.985 23.448C127.177 23.256 127.273 23 127.273 22.68V21.88C127.273 21.56 127.177 21.3093 126.985 21.128C126.804 20.936 126.553 20.84 126.233 20.84H123.753V23.72H126.233ZM122.633 25C122.473 25 122.393 24.92 122.393 24.76V17.08C122.393 16.92 122.473 16.84 122.633 16.84H123.513C123.673 16.84 123.753 16.92 123.753 17.08V19.56H126.233C127.833 19.56 128.633 20.3333 128.633 21.88V22.68C128.633 24.2267 127.833 25 126.233 25H122.633ZM131.353 24.76C131.353 24.92 131.273 25 131.113 25H130.233C130.073 25 129.993 24.92 129.993 24.76V17.08C129.993 16.92 130.073 16.84 130.233 16.84H131.113C131.273 16.84 131.353 16.92 131.353 17.08V24.76ZM139.229 20.2V19.16C139.229 18.7973 139.117 18.5093 138.893 18.296C138.679 18.072 138.391 17.96 138.029 17.96H136.109C135.746 17.96 135.453 18.072 135.229 18.296C135.015 18.5093 134.909 18.7973 134.909 19.16V20.2H139.229ZM134.909 21.48V22.68C134.909 23.0427 135.015 23.336 135.229 23.56C135.453 23.7733 135.746 23.88 136.109 23.88H138.029C138.391 23.88 138.679 23.7733 138.893 23.56C139.117 23.336 139.229 23.0427 139.229 22.68V22.6C139.229 22.44 139.309 22.36 139.469 22.36H140.349C140.509 22.36 140.589 22.44 140.589 22.6V22.68C140.589 23.48 140.37 24.0933 139.933 24.52C139.506 24.9467 138.871 25.16 138.029 25.16H136.109C135.266 25.16 134.626 24.9467 134.189 24.52C133.762 24.0933 133.549 23.48 133.549 22.68V19.16C133.549 18.36 133.762 17.7467 134.189 17.32C134.626 16.8933 135.266 16.68 136.109 16.68H138.029C138.871 16.68 139.506 16.8933 139.933 17.32C140.37 17.7467 140.589 18.36 140.589 19.16V21.24C140.589 21.4 140.509 21.48 140.349 21.48H134.909ZM150.865 17.08C150.897 16.9947 150.94 16.936 150.993 16.904C151.057 16.8613 151.148 16.84 151.265 16.84H152.225C152.396 16.84 152.449 16.92 152.385 17.08L149.265 25C149.041 25.5653 148.822 26.04 148.609 26.424C148.396 26.808 148.166 27.1173 147.921 27.352C147.676 27.5973 147.409 27.7733 147.121 27.88C146.833 27.9867 146.508 28.04 146.145 28.04H145.825C145.665 28.04 145.585 27.96 145.585 27.8V27C145.585 26.84 145.665 26.76 145.825 26.76H146.145C146.55 26.76 146.881 26.6267 147.137 26.36C147.404 26.0933 147.66 25.64 147.905 25L144.785 17.08C144.721 16.92 144.774 16.84 144.945 16.84H145.905C146.022 16.84 146.108 16.8613 146.161 16.904C146.225 16.936 146.273 16.9947 146.305 17.08L148.545 23.08H148.625L150.865 17.08ZM154.934 22.68C154.934 23.0427 155.04 23.336 155.254 23.56C155.478 23.7733 155.771 23.88 156.134 23.88H157.974C158.336 23.88 158.624 23.7733 158.838 23.56C159.062 23.336 159.174 23.0427 159.174 22.68V22.28C159.174 22.12 159.254 22.04 159.414 22.04H160.294C160.454 22.04 160.534 22.12 160.534 22.28V22.68C160.534 23.48 160.315 24.0933 159.878 24.52C159.451 24.9467 158.816 25.16 157.974 25.16H156.134C155.291 25.16 154.651 24.9467 154.214 24.52C153.787 24.0933 153.574 23.48 153.574 22.68V19.16C153.574 18.36 153.787 17.7467 154.214 17.32C154.651 16.8933 155.291 16.68 156.134 16.68H157.974C158.816 16.68 159.451 16.8933 159.878 17.32C160.315 17.7467 160.534 18.36 160.534 19.16V19.56C160.534 19.72 160.454 19.8 160.294 19.8H159.414C159.254 19.8 159.174 19.72 159.174 19.56V19.16C159.174 18.7973 159.062 18.5093 158.838 18.296C158.624 18.072 158.336 17.96 157.974 17.96H156.134C155.771 17.96 155.478 18.072 155.254 18.296C155.04 18.5093 154.934 18.7973 154.934 19.16V22.68ZM164.42 25C164.26 25 164.18 24.92 164.18 24.76V18.12H161.7C161.54 18.12 161.46 18.04 161.46 17.88V17.08C161.46 16.92 161.54 16.84 161.7 16.84H168.02C168.18 16.84 168.26 16.92 168.26 17.08V17.88C168.26 18.04 168.18 18.12 168.02 18.12H165.54V24.76C165.54 24.92 165.46 25 165.3 25H164.42ZM173.905 23.72C174.268 23.72 174.556 23.6133 174.769 23.4C174.993 23.176 175.105 22.8827 175.105 22.52V19.16C175.105 18.7973 174.993 18.5093 174.769 18.296C174.556 18.072 174.268 17.96 173.905 17.96H172.545C172.065 17.96 171.665 18.12 171.345 18.44C171.025 18.76 170.865 19.16 170.865 19.64V23.72H173.905ZM170.865 25V27.8C170.865 27.96 170.785 28.04 170.625 28.04H169.745C169.585 28.04 169.505 27.96 169.505 27.8V17.08C169.505 16.92 169.585 16.84 169.745 16.84H170.625C170.785 16.84 170.865 16.92 170.865 17.08V17.64H170.945C171.031 17.4587 171.153 17.2987 171.313 17.16C171.452 17.0427 171.633 16.936 171.857 16.84C172.081 16.7333 172.364 16.68 172.705 16.68H173.905C174.748 16.68 175.383 16.8933 175.809 17.32C176.247 17.7467 176.465 18.36 176.465 19.16V22.52C176.465 23.32 176.247 23.9333 175.809 24.36C175.383 24.7867 174.748 25 173.905 25H170.865ZM184.265 19.16C184.265 18.7973 184.153 18.5093 183.929 18.296C183.715 18.072 183.427 17.96 183.065 17.96H181.065C180.702 17.96 180.409 18.072 180.185 18.296C179.971 18.5093 179.865 18.7973 179.865 19.16V22.68C179.865 23.0427 179.971 23.336 180.185 23.56C180.409 23.7733 180.702 23.88 181.065 23.88H183.065C183.427 23.88 183.715 23.7733 183.929 23.56C184.153 23.336 184.265 23.0427 184.265 22.68V19.16ZM185.625 22.68C185.625 23.48 185.406 24.0933 184.969 24.52C184.542 24.9467 183.907 25.16 183.065 25.16H181.065C180.222 25.16 179.582 24.9467 179.145 24.52C178.718 24.0933 178.505 23.48 178.505 22.68V19.16C178.505 18.36 178.718 17.7467 179.145 17.32C179.582 16.8933 180.222 16.68 181.065 16.68H183.065C183.907 16.68 184.542 16.8933 184.969 17.32C185.406 17.7467 185.625 18.36 185.625 19.16V22.68ZM190.864 15.56C190.256 15.56 189.797 15.4107 189.488 15.112C189.179 14.8027 189.024 14.3653 189.024 13.8V13.4C189.024 13.24 189.104 13.16 189.264 13.16H189.984C190.144 13.16 190.224 13.24 190.224 13.4V13.8C190.224 14.2267 190.437 14.44 190.864 14.44H191.744C192.171 14.44 192.384 14.2267 192.384 13.8V13.4C192.384 13.24 192.464 13.16 192.624 13.16H193.344C193.504 13.16 193.584 13.24 193.584 13.4V13.8C193.584 14.3653 193.429 14.8027 193.12 15.112C192.811 15.4107 192.352 15.56 191.744 15.56H190.864ZM194.544 16.84C194.704 16.84 194.784 16.92 194.784 17.08V24.76C194.784 24.92 194.704 25 194.544 25H193.664C193.504 25 193.424 24.92 193.424 24.76V18.92H193.344L189.504 24.76C189.451 24.8453 189.397 24.9093 189.344 24.952C189.291 24.984 189.184 25 189.024 25H188.064C187.904 25 187.824 24.92 187.824 24.76V17.08C187.824 16.92 187.904 16.84 188.064 16.84H188.944C189.104 16.84 189.184 16.92 189.184 17.08V22.92H189.264L193.104 17.08C193.157 16.9947 193.211 16.936 193.264 16.904C193.317 16.8613 193.424 16.84 193.584 16.84H194.544ZM198.34 22.68C198.34 23.0427 198.446 23.336 198.66 23.56C198.884 23.7733 199.177 23.88 199.54 23.88H201.38C201.742 23.88 202.03 23.7733 202.244 23.56C202.468 23.336 202.58 23.0427 202.58 22.68V22.28C202.58 22.12 202.66 22.04 202.82 22.04H203.7C203.86 22.04 203.94 22.12 203.94 22.28V22.68C203.94 23.48 203.721 24.0933 203.284 24.52C202.857 24.9467 202.222 25.16 201.38 25.16H199.54C198.697 25.16 198.057 24.9467 197.62 24.52C197.193 24.0933 196.98 23.48 196.98 22.68V19.16C196.98 18.36 197.193 17.7467 197.62 17.32C198.057 16.8933 198.697 16.68 199.54 16.68H201.38C202.222 16.68 202.857 16.8933 203.284 17.32C203.721 17.7467 203.94 18.36 203.94 19.16V19.56C203.94 19.72 203.86 19.8 203.7 19.8H202.82C202.66 19.8 202.58 19.72 202.58 19.56V19.16C202.58 18.7973 202.468 18.5093 202.244 18.296C202.03 18.072 201.742 17.96 201.38 17.96H199.54C199.177 17.96 198.884 18.072 198.66 18.296C198.446 18.5093 198.34 18.7973 198.34 19.16V22.68ZM207.827 25C207.667 25 207.587 24.92 207.587 24.76V18.12H205.107C204.947 18.12 204.867 18.04 204.867 17.88V17.08C204.867 16.92 204.947 16.84 205.107 16.84H211.427C211.587 16.84 211.667 16.92 211.667 17.08V17.88C211.667 18.04 211.587 18.12 211.427 18.12H208.947V24.76C208.947 24.92 208.867 25 208.707 25H207.827ZM217.312 23.72C217.632 23.72 217.882 23.6293 218.064 23.448C218.256 23.256 218.352 23 218.352 22.68V22.52C218.352 22.2 218.256 21.9493 218.064 21.768C217.882 21.576 217.632 21.48 217.312 21.48H214.272V23.72H217.312ZM216.832 20.2C217.152 20.2 217.402 20.1093 217.584 19.928C217.776 19.736 217.872 19.48 217.872 19.16C217.872 18.84 217.776 18.5893 217.584 18.408C217.402 18.216 217.152 18.12 216.832 18.12H214.272V20.2H216.832ZM213.152 25C212.992 25 212.912 24.92 212.912 24.76V17.08C212.912 16.92 212.992 16.84 213.152 16.84H216.832C218.432 16.84 219.232 17.6133 219.232 19.16C219.232 19.48 219.173 19.7413 219.056 19.944C218.949 20.136 218.832 20.2907 218.704 20.408C218.554 20.536 218.384 20.6267 218.192 20.68V20.76C218.469 20.8133 218.72 20.9147 218.944 21.064C219.136 21.192 219.312 21.3733 219.472 21.608C219.632 21.8427 219.712 22.1467 219.712 22.52V22.68C219.712 24.2267 218.912 25 217.312 25H213.152ZM221.267 22.52C221.267 20.9733 222.067 20.2 223.667 20.2H226.627V19.16C226.627 18.7973 226.515 18.5093 226.291 18.296C226.077 18.072 225.789 17.96 225.427 17.96H224.307C223.944 17.96 223.651 18.072 223.427 18.296C223.213 18.5093 223.107 18.7973 223.107 19.16C223.107 19.32 223.027 19.4 222.867 19.4H221.987C221.827 19.4 221.747 19.32 221.747 19.16C221.747 18.36 221.96 17.7467 222.387 17.32C222.824 16.8933 223.464 16.68 224.307 16.68H225.427C226.269 16.68 226.904 16.8933 227.331 17.32C227.768 17.7467 227.987 18.36 227.987 19.16V24.76C227.987 24.92 227.907 25 227.747 25H226.867C226.707 25 226.627 24.92 226.627 24.76V24.2H226.547C226.461 24.3813 226.339 24.5413 226.179 24.68C226.04 24.7973 225.859 24.904 225.635 25C225.411 25.1067 225.128 25.16 224.787 25.16H223.667C222.067 25.16 221.267 24.3867 221.267 22.84V22.52ZM222.627 22.84C222.627 23.16 222.717 23.416 222.899 23.608C223.091 23.7893 223.347 23.88 223.667 23.88H224.947C225.427 23.88 225.827 23.72 226.147 23.4C226.467 23.08 226.627 22.68 226.627 22.2V21.48H223.667C223.347 21.48 223.091 21.576 222.899 21.768C222.717 21.9493 222.627 22.2 222.627 22.52V22.84Z" fill="#7E7E82"/>
<path d="M266.64 23.56H272.32V15.24H268.48L266.64 23.56ZM273.6 13.8C273.76 13.8 273.84 13.88 273.84 14.04V23.56H274.8C274.96 23.56 275.04 23.64 275.04 23.8V26.84C275.04 27 274.96 27.08 274.8 27.08H273.76C273.6 27.08 273.52 27 273.52 26.84V25H265.52V26.84C265.52 27 265.44 27.08 265.28 27.08H264.24C264.08 27.08 264 27 264 26.84V23.8C264 23.64 264.08 23.56 264.24 23.56H265.12L267.2 14.04C267.232 13.88 267.339 13.8 267.52 13.8H273.6ZM282.196 19.16C282.196 18.7973 282.084 18.5093 281.86 18.296C281.646 18.072 281.358 17.96 280.996 17.96H278.996C278.633 17.96 278.34 18.072 278.116 18.296C277.902 18.5093 277.796 18.7973 277.796 19.16V22.68C277.796 23.0427 277.902 23.336 278.116 23.56C278.34 23.7733 278.633 23.88 278.996 23.88H280.996C281.358 23.88 281.646 23.7733 281.86 23.56C282.084 23.336 282.196 23.0427 282.196 22.68V19.16ZM283.556 22.68C283.556 23.48 283.337 24.0933 282.9 24.52C282.473 24.9467 281.838 25.16 280.996 25.16H278.996C278.153 25.16 277.513 24.9467 277.076 24.52C276.649 24.0933 276.436 23.48 276.436 22.68V19.16C276.436 18.36 276.649 17.7467 277.076 17.32C277.513 16.8933 278.153 16.68 278.996 16.68H280.996C281.838 16.68 282.473 16.8933 282.9 17.32C283.337 17.7467 283.556 18.36 283.556 19.16V22.68ZM291.435 25C291.275 25 291.195 24.92 291.195 24.76V18.12H287.115V24.76C287.115 24.92 287.035 25 286.875 25H285.995C285.835 25 285.755 24.92 285.755 24.76V17.08C285.755 16.92 285.835 16.84 285.995 16.84H292.315C292.475 16.84 292.555 16.92 292.555 17.08V24.76C292.555 24.92 292.475 25 292.315 25H291.435ZM300.514 19.16C300.514 18.7973 300.402 18.5093 300.178 18.296C299.965 18.072 299.677 17.96 299.314 17.96H297.314C296.952 17.96 296.658 18.072 296.434 18.296C296.221 18.5093 296.114 18.7973 296.114 19.16V22.68C296.114 23.0427 296.221 23.336 296.434 23.56C296.658 23.7733 296.952 23.88 297.314 23.88H299.314C299.677 23.88 299.965 23.7733 300.178 23.56C300.402 23.336 300.514 23.0427 300.514 22.68V19.16ZM301.874 22.68C301.874 23.48 301.656 24.0933 301.218 24.52C300.792 24.9467 300.157 25.16 299.314 25.16H297.314C296.472 25.16 295.832 24.9467 295.394 24.52C294.968 24.0933 294.754 23.48 294.754 22.68V19.16C294.754 18.36 294.968 17.7467 295.394 17.32C295.832 16.8933 296.472 16.68 297.314 16.68H299.314C300.157 16.68 300.792 16.8933 301.218 17.32C301.656 17.7467 301.874 18.36 301.874 19.16V22.68ZM305.598 22.84C305.438 23.64 305.166 24.2267 304.782 24.6C304.398 24.9733 303.843 25.16 303.118 25.16H302.878C302.718 25.16 302.638 25.08 302.638 24.92V24.12C302.638 23.96 302.718 23.88 302.878 23.88H303.118C303.395 23.88 303.63 23.7893 303.822 23.608C304.024 23.4267 304.163 23.1707 304.238 22.84L305.438 17.08C305.47 16.92 305.603 16.84 305.838 16.84H310.318C310.478 16.84 310.558 16.92 310.558 17.08V24.76C310.558 24.92 310.478 25 310.318 25H309.438C309.278 25 309.198 24.92 309.198 24.76V18.12H306.558L305.598 22.84ZM314.281 21.48V24.76C314.281 24.92 314.201 25 314.041 25H313.161C313.001 25 312.921 24.92 312.921 24.76V17.08C312.921 16.92 313.001 16.84 313.161 16.84H314.041C314.201 16.84 314.281 16.92 314.281 17.08V20.28H318.361V17.08C318.361 16.92 318.441 16.84 318.601 16.84H319.481C319.641 16.84 319.721 16.92 319.721 17.08V24.76C319.721 24.92 319.641 25 319.481 25H318.601C318.441 25 318.361 24.92 318.361 24.76V21.48H314.281ZM328.8 16.84C328.96 16.84 329.04 16.92 329.04 17.08V24.76C329.04 24.92 328.96 25 328.8 25H327.92C327.76 25 327.68 24.92 327.68 24.76V18.92H327.6L323.76 24.76C323.707 24.8453 323.653 24.9093 323.6 24.952C323.547 24.984 323.44 25 323.28 25H322.32C322.16 25 322.08 24.92 322.08 24.76V17.08C322.08 16.92 322.16 16.84 322.32 16.84H323.2C323.36 16.84 323.44 16.92 323.44 17.08V22.92H323.52L327.36 17.08C327.413 16.9947 327.467 16.936 327.52 16.904C327.573 16.8613 327.68 16.84 327.84 16.84H328.8ZM333.236 25C333.076 25 332.996 24.92 332.996 24.76V18.12H330.516C330.356 18.12 330.276 18.04 330.276 17.88V17.08C330.276 16.92 330.356 16.84 330.516 16.84H336.836C336.996 16.84 337.076 16.92 337.076 17.08V17.88C337.076 18.04 336.996 18.12 336.836 18.12H334.356V24.76C334.356 24.92 334.276 25 334.116 25H333.236ZM343.841 20.2V19.16C343.841 18.7973 343.729 18.5093 343.505 18.296C343.291 18.072 343.003 17.96 342.641 17.96H340.721C340.358 17.96 340.065 18.072 339.841 18.296C339.627 18.5093 339.521 18.7973 339.521 19.16V20.2H343.841ZM339.521 21.48V22.68C339.521 23.0427 339.627 23.336 339.841 23.56C340.065 23.7733 340.358 23.88 340.721 23.88H342.641C343.003 23.88 343.291 23.7733 343.505 23.56C343.729 23.336 343.841 23.0427 343.841 22.68V22.6C343.841 22.44 343.921 22.36 344.081 22.36H344.961C345.121 22.36 345.201 22.44 345.201 22.6V22.68C345.201 23.48 344.982 24.0933 344.545 24.52C344.118 24.9467 343.483 25.16 342.641 25.16H340.721C339.878 25.16 339.238 24.9467 338.801 24.52C338.374 24.0933 338.161 23.48 338.161 22.68V19.16C338.161 18.36 338.374 17.7467 338.801 17.32C339.238 16.8933 339.878 16.68 340.721 16.68H342.641C343.483 16.68 344.118 16.8933 344.545 17.32C344.982 17.7467 345.201 18.36 345.201 19.16V21.24C345.201 21.4 345.121 21.48 344.961 21.48H339.521ZM349.082 22.84C348.922 23.64 348.65 24.2267 348.266 24.6C347.882 24.9733 347.327 25.16 346.602 25.16H346.362C346.202 25.16 346.122 25.08 346.122 24.92V24.12C346.122 23.96 346.202 23.88 346.362 23.88H346.602C346.879 23.88 347.114 23.7893 347.306 23.608C347.509 23.4267 347.647 23.1707 347.722 22.84L348.922 17.08C348.954 16.92 349.087 16.84 349.322 16.84H353.802C353.962 16.84 354.042 16.92 354.042 17.08V24.76C354.042 24.92 353.962 25 353.802 25H352.922C352.762 25 352.682 24.92 352.682 24.76V18.12H350.042L349.082 22.84ZM360.565 23.72C360.885 23.72 361.136 23.6293 361.317 23.448C361.509 23.256 361.605 23 361.605 22.68V21.88C361.605 21.56 361.509 21.3093 361.317 21.128C361.136 20.936 360.885 20.84 360.565 20.84H357.765V23.72H360.565ZM356.645 25C356.485 25 356.405 24.92 356.405 24.76V17.08C356.405 16.92 356.485 16.84 356.645 16.84H357.525C357.685 16.84 357.765 16.92 357.765 17.08V19.56H360.565C362.165 19.56 362.965 20.3333 362.965 21.88V22.68C362.965 24.2267 362.165 25 360.565 25H356.645ZM366.362 21.48V24.76C366.362 24.92 366.282 25 366.122 25H365.242C365.082 25 365.002 24.92 365.002 24.76V17.08C365.002 16.92 365.082 16.84 365.242 16.84H366.122C366.282 16.84 366.362 16.92 366.362 17.08V20.28H370.442V17.08C370.442 16.92 370.522 16.84 370.682 16.84H371.562C371.722 16.84 371.802 16.92 371.802 17.08V24.76C371.802 24.92 371.722 25 371.562 25H370.682C370.522 25 370.442 24.92 370.442 24.76V21.48H366.362ZM378.001 23.72C378.321 23.72 378.572 23.6293 378.753 23.448C378.945 23.256 379.041 23 379.041 22.68V21.88C379.041 21.56 378.945 21.3093 378.753 21.128C378.572 20.936 378.321 20.84 378.001 20.84H375.521V23.72H378.001ZM374.401 25C374.241 25 374.161 24.92 374.161 24.76V17.08C374.161 16.92 374.241 16.84 374.401 16.84H375.281C375.441 16.84 375.521 16.92 375.521 17.08V19.56H378.001C379.601 19.56 380.401 20.3333 380.401 21.88V22.68C380.401 24.2267 379.601 25 378.001 25H374.401ZM383.121 24.76C383.121 24.92 383.041 25 382.881 25H382.001C381.841 25 381.761 24.92 381.761 24.76V17.08C381.761 16.92 381.841 16.84 382.001 16.84H382.881C383.041 16.84 383.121 16.92 383.121 17.08V24.76ZM390.997 20.2V19.16C390.997 18.7973 390.885 18.5093 390.661 18.296C390.448 18.072 390.16 17.96 389.797 17.96H387.877C387.514 17.96 387.221 18.072 386.997 18.296C386.784 18.5093 386.677 18.7973 386.677 19.16V20.2H390.997ZM386.677 21.48V22.68C386.677 23.0427 386.784 23.336 386.997 23.56C387.221 23.7733 387.514 23.88 387.877 23.88H389.797C390.16 23.88 390.448 23.7733 390.661 23.56C390.885 23.336 390.997 23.0427 390.997 22.68V22.6C390.997 22.44 391.077 22.36 391.237 22.36H392.117C392.277 22.36 392.357 22.44 392.357 22.6V22.68C392.357 23.48 392.138 24.0933 391.701 24.52C391.274 24.9467 390.64 25.16 389.797 25.16H387.877C387.034 25.16 386.394 24.9467 385.957 24.52C385.53 24.0933 385.317 23.48 385.317 22.68V19.16C385.317 18.36 385.53 17.7467 385.957 17.32C386.394 16.8933 387.034 16.68 387.877 16.68H389.797C390.64 16.68 391.274 16.8933 391.701 17.32C392.138 17.7467 392.357 18.36 392.357 19.16V21.24C392.357 21.4 392.277 21.48 392.117 21.48H386.677ZM402.633 17.08C402.665 16.9947 402.708 16.936 402.761 16.904C402.825 16.8613 402.916 16.84 403.033 16.84H403.993C404.164 16.84 404.217 16.92 404.153 17.08L401.033 25C400.809 25.5653 400.591 26.04 400.377 26.424C400.164 26.808 399.935 27.1173 399.689 27.352C399.444 27.5973 399.177 27.7733 398.889 27.88C398.601 27.9867 398.276 28.04 397.913 28.04H397.593C397.433 28.04 397.353 27.96 397.353 27.8V27C397.353 26.84 397.433 26.76 397.593 26.76H397.913C398.319 26.76 398.649 26.6267 398.905 26.36C399.172 26.0933 399.428 25.64 399.673 25L396.553 17.08C396.489 16.92 396.543 16.84 396.713 16.84H397.673C397.791 16.84 397.876 16.8613 397.929 16.904C397.993 16.936 398.041 16.9947 398.073 17.08L400.313 23.08H400.393L402.633 17.08ZM406.702 22.68C406.702 23.0427 406.809 23.336 407.022 23.56C407.246 23.7733 407.539 23.88 407.902 23.88H409.742C410.105 23.88 410.393 23.7733 410.606 23.56C410.83 23.336 410.942 23.0427 410.942 22.68V22.28C410.942 22.12 411.022 22.04 411.182 22.04H412.062C412.222 22.04 412.302 22.12 412.302 22.28V22.68C412.302 23.48 412.083 24.0933 411.646 24.52C411.219 24.9467 410.585 25.16 409.742 25.16H407.902C407.059 25.16 406.419 24.9467 405.982 24.52C405.555 24.0933 405.342 23.48 405.342 22.68V19.16C405.342 18.36 405.555 17.7467 405.982 17.32C406.419 16.8933 407.059 16.68 407.902 16.68H409.742C410.585 16.68 411.219 16.8933 411.646 17.32C412.083 17.7467 412.302 18.36 412.302 19.16V19.56C412.302 19.72 412.222 19.8 412.062 19.8H411.182C411.022 19.8 410.942 19.72 410.942 19.56V19.16C410.942 18.7973 410.83 18.5093 410.606 18.296C410.393 18.072 410.105 17.96 409.742 17.96H407.902C407.539 17.96 407.246 18.072 407.022 18.296C406.809 18.5093 406.702 18.7973 406.702 19.16V22.68ZM416.029 22.84C415.869 23.64 415.597 24.2267 415.213 24.6C414.829 24.9733 414.274 25.16 413.549 25.16H413.309C413.149 25.16 413.069 25.08 413.069 24.92V24.12C413.069 23.96 413.149 23.88 413.309 23.88H413.549C413.826 23.88 414.061 23.7893 414.253 23.608C414.455 23.4267 414.594 23.1707 414.669 22.84L415.869 17.08C415.901 16.92 416.034 16.84 416.269 16.84H420.749C420.909 16.84 420.989 16.92 420.989 17.08V24.76C420.989 24.92 420.909 25 420.749 25H419.869C419.709 25 419.629 24.92 419.629 24.76V18.12H416.989L416.029 22.84ZM428.424 17.08C428.456 16.9947 428.499 16.936 428.552 16.904C428.616 16.8613 428.707 16.84 428.824 16.84H429.784C429.955 16.84 430.008 16.92 429.944 17.08L426.824 25C426.6 25.5653 426.381 26.04 426.168 26.424C425.955 26.808 425.725 27.1173 425.48 27.352C425.235 27.5973 424.968 27.7733 424.68 27.88C424.392 27.9867 424.067 28.04 423.704 28.04H423.384C423.224 28.04 423.144 27.96 423.144 27.8V27C423.144 26.84 423.224 26.76 423.384 26.76H423.704C424.109 26.76 424.44 26.6267 424.696 26.36C424.963 26.0933 425.219 25.64 425.464 25L422.344 17.08C422.28 16.92 422.333 16.84 422.504 16.84H423.464C423.581 16.84 423.667 16.8613 423.72 16.904C423.784 16.936 423.832 16.9947 423.864 17.08L426.104 23.08H426.184L428.424 17.08ZM431.532 25C431.372 25 431.292 24.92 431.292 24.76V17.08C431.292 16.92 431.372 16.84 431.532 16.84H436.812C436.972 16.84 437.052 16.92 437.052 17.08V17.88C437.052 18.04 436.972 18.12 436.812 18.12H432.652V24.76C432.652 24.92 432.572 25 432.412 25H431.532ZM444.859 16.84C445.019 16.84 445.099 16.92 445.099 17.08V24.76C445.099 24.92 445.019 25 444.859 25H443.979C443.819 25 443.739 24.92 443.739 24.76V18.92H443.659L439.819 24.76C439.766 24.8453 439.713 24.9093 439.659 24.952C439.606 24.984 439.499 25 439.339 25H438.379C438.219 25 438.139 24.92 438.139 24.76V17.08C438.139 16.92 438.219 16.84 438.379 16.84H439.259C439.419 16.84 439.499 16.92 439.499 17.08V22.92H439.579L443.419 17.08C443.473 16.9947 443.526 16.936 443.579 16.904C443.633 16.8613 443.739 16.84 443.899 16.84H444.859Z" fill="#7E7E82"/>
<path d="M475.67 25C475.51 25 475.43 24.92 475.43 24.76V14.04C475.43 13.88 475.51 13.8 475.67 13.8H476.71C476.87 13.8 476.95 13.88 476.95 14.04V23.56H482.55V14.04C482.55 13.88 482.63 13.8 482.79 13.8H483.83C483.99 13.8 484.07 13.88 484.07 14.04V23.8L485.67 25.56C485.712 25.6027 485.734 25.656 485.734 25.72C485.734 25.784 485.712 25.8373 485.67 25.88L484.87 26.6C484.752 26.696 484.646 26.696 484.55 26.6L483.11 25H475.67ZM492.492 20.2V19.16C492.492 18.7973 492.38 18.5093 492.156 18.296C491.943 18.072 491.655 17.96 491.292 17.96H489.372C489.009 17.96 488.716 18.072 488.492 18.296C488.279 18.5093 488.172 18.7973 488.172 19.16V20.2H492.492ZM488.172 21.48V22.68C488.172 23.0427 488.279 23.336 488.492 23.56C488.716 23.7733 489.009 23.88 489.372 23.88H491.292C491.655 23.88 491.943 23.7733 492.156 23.56C492.38 23.336 492.492 23.0427 492.492 22.68V22.6C492.492 22.44 492.572 22.36 492.732 22.36H493.612C493.772 22.36 493.852 22.44 493.852 22.6V22.68C493.852 23.48 493.633 24.0933 493.196 24.52C492.769 24.9467 492.135 25.16 491.292 25.16H489.372C488.529 25.16 487.889 24.9467 487.452 24.52C487.025 24.0933 486.812 23.48 486.812 22.68V19.16C486.812 18.36 487.025 17.7467 487.452 17.32C487.889 16.8933 488.529 16.68 489.372 16.68H491.292C492.135 16.68 492.769 16.8933 493.196 17.32C493.633 17.7467 493.852 18.36 493.852 19.16V21.24C493.852 21.4 493.772 21.48 493.612 21.48H488.172ZM497.413 21.48V24.76C497.413 24.92 497.333 25 497.173 25H496.293C496.133 25 496.053 24.92 496.053 24.76V17.08C496.053 16.92 496.133 16.84 496.293 16.84H497.173C497.333 16.84 497.413 16.92 497.413 17.08V20.28H501.493V17.08C501.493 16.92 501.573 16.84 501.733 16.84H502.613C502.773 16.84 502.853 16.92 502.853 17.08V24.76C502.853 24.92 502.773 25 502.613 25H501.733C501.573 25 501.493 24.92 501.493 24.76V21.48H497.413ZM509.053 23.72C509.373 23.72 509.623 23.6293 509.805 23.448C509.997 23.256 510.093 23 510.093 22.68V21.88C510.093 21.56 509.997 21.3093 509.805 21.128C509.623 20.936 509.373 20.84 509.053 20.84H506.573V23.72H509.053ZM505.453 25C505.293 25 505.213 24.92 505.213 24.76V17.08C505.213 16.92 505.293 16.84 505.453 16.84H506.333C506.493 16.84 506.573 16.92 506.573 17.08V19.56H509.053C510.653 19.56 511.453 20.3333 511.453 21.88V22.68C511.453 24.2267 510.653 25 509.053 25H505.453ZM514.173 24.76C514.173 24.92 514.093 25 513.933 25H513.053C512.893 25 512.813 24.92 512.813 24.76V17.08C512.813 16.92 512.893 16.84 513.053 16.84H513.933C514.093 16.84 514.173 16.92 514.173 17.08V24.76ZM520.892 21.48V24.76C520.892 24.92 520.812 25 520.652 25H519.772C519.612 25 519.532 24.92 519.532 24.76V17.08C519.532 16.92 519.612 16.84 519.772 16.84H520.652C520.812 16.84 520.892 16.92 520.892 17.08V20.28H524.972V17.08C524.972 16.92 525.052 16.84 525.212 16.84H526.092C526.252 16.84 526.332 16.92 526.332 17.08V24.76C526.332 24.92 526.252 25 526.092 25H525.212C525.052 25 524.972 24.92 524.972 24.76V21.48H520.892ZM528.371 22.52C528.371 20.9733 529.171 20.2 530.771 20.2H533.731V19.16C533.731 18.7973 533.619 18.5093 533.395 18.296C533.182 18.072 532.894 17.96 532.531 17.96H531.411C531.048 17.96 530.755 18.072 530.531 18.296C530.318 18.5093 530.211 18.7973 530.211 19.16C530.211 19.32 530.131 19.4 529.971 19.4H529.091C528.931 19.4 528.851 19.32 528.851 19.16C528.851 18.36 529.064 17.7467 529.491 17.32C529.928 16.8933 530.568 16.68 531.411 16.68H532.531C533.374 16.68 534.008 16.8933 534.435 17.32C534.872 17.7467 535.091 18.36 535.091 19.16V24.76C535.091 24.92 535.011 25 534.851 25H533.971C533.811 25 533.731 24.92 533.731 24.76V24.2H533.651C533.566 24.3813 533.443 24.5413 533.283 24.68C533.144 24.7973 532.963 24.904 532.739 25C532.515 25.1067 532.232 25.16 531.891 25.16H530.771C529.171 25.16 528.371 24.3867 528.371 22.84V22.52ZM529.731 22.84C529.731 23.16 529.822 23.416 530.003 23.608C530.195 23.7893 530.451 23.88 530.771 23.88H532.051C532.531 23.88 532.931 23.72 533.251 23.4C533.571 23.08 533.731 22.68 533.731 22.2V21.48H530.771C530.451 21.48 530.195 21.576 530.003 21.768C529.822 21.9493 529.731 22.2 529.731 22.52V22.84ZM545.519 17.08C545.551 16.9947 545.594 16.936 545.647 16.904C545.711 16.8613 545.802 16.84 545.919 16.84H546.879C547.05 16.84 547.103 16.92 547.039 17.08L543.919 25C543.695 25.5653 543.476 26.04 543.263 26.424C543.05 26.808 542.82 27.1173 542.575 27.352C542.33 27.5973 542.063 27.7733 541.775 27.88C541.487 27.9867 541.162 28.04 540.799 28.04H540.479C540.319 28.04 540.239 27.96 540.239 27.8V27C540.239 26.84 540.319 26.76 540.479 26.76H540.799C541.204 26.76 541.535 26.6267 541.791 26.36C542.058 26.0933 542.314 25.64 542.559 25L539.439 17.08C539.375 16.92 539.428 16.84 539.599 16.84H540.559C540.676 16.84 540.762 16.8613 540.815 16.904C540.879 16.936 540.927 16.9947 540.959 17.08L543.199 23.08H543.279L545.519 17.08ZM549.588 22.68C549.588 23.0427 549.694 23.336 549.908 23.56C550.132 23.7733 550.425 23.88 550.788 23.88H552.628C552.99 23.88 553.278 23.7733 553.492 23.56C553.716 23.336 553.828 23.0427 553.828 22.68V22.28C553.828 22.12 553.908 22.04 554.068 22.04H554.948C555.108 22.04 555.188 22.12 555.188 22.28V22.68C555.188 23.48 554.969 24.0933 554.532 24.52C554.105 24.9467 553.47 25.16 552.628 25.16H550.788C549.945 25.16 549.305 24.9467 548.868 24.52C548.441 24.0933 548.228 23.48 548.228 22.68V19.16C548.228 18.36 548.441 17.7467 548.868 17.32C549.305 16.8933 549.945 16.68 550.788 16.68H552.628C553.47 16.68 554.105 16.8933 554.532 17.32C554.969 17.7467 555.188 18.36 555.188 19.16V19.56C555.188 19.72 555.108 19.8 554.948 19.8H554.068C553.908 19.8 553.828 19.72 553.828 19.56V19.16C553.828 18.7973 553.716 18.5093 553.492 18.296C553.278 18.072 552.99 17.96 552.628 17.96H550.788C550.425 17.96 550.132 18.072 549.908 18.296C549.694 18.5093 549.588 18.7973 549.588 19.16V22.68ZM558.915 22.84C558.755 23.64 558.483 24.2267 558.099 24.6C557.715 24.9733 557.16 25.16 556.435 25.16H556.195C556.035 25.16 555.955 25.08 555.955 24.92V24.12C555.955 23.96 556.035 23.88 556.195 23.88H556.435C556.712 23.88 556.947 23.7893 557.139 23.608C557.341 23.4267 557.48 23.1707 557.555 22.84L558.755 17.08C558.787 16.92 558.92 16.84 559.155 16.84H563.635C563.795 16.84 563.875 16.92 563.875 17.08V24.76C563.875 24.92 563.795 25 563.635 25H562.755C562.595 25 562.515 24.92 562.515 24.76V18.12H559.875L558.915 22.84ZM571.31 17.08C571.342 16.9947 571.384 16.936 571.438 16.904C571.502 16.8613 571.592 16.84 571.71 16.84H572.67C572.84 16.84 572.894 16.92 572.83 17.08L569.71 25C569.486 25.5653 569.267 26.04 569.054 26.424C568.84 26.808 568.611 27.1173 568.366 27.352C568.12 27.5973 567.854 27.7733 567.566 27.88C567.278 27.9867 566.952 28.04 566.59 28.04H566.27C566.11 28.04 566.03 27.96 566.03 27.8V27C566.03 26.84 566.11 26.76 566.27 26.76H566.59C566.995 26.76 567.326 26.6267 567.582 26.36C567.848 26.0933 568.104 25.64 568.35 25L565.23 17.08C565.166 16.92 565.219 16.84 565.39 16.84H566.35C566.467 16.84 566.552 16.8613 566.606 16.904C566.67 16.936 566.718 16.9947 566.75 17.08L568.99 23.08H569.07L571.31 17.08ZM574.418 25C574.258 25 574.178 24.92 574.178 24.76V17.08C574.178 16.92 574.258 16.84 574.418 16.84H579.698C579.858 16.84 579.938 16.92 579.938 17.08V17.88C579.938 18.04 579.858 18.12 579.698 18.12H575.538V24.76C575.538 24.92 575.458 25 575.298 25H574.418ZM587.745 16.84C587.905 16.84 587.985 16.92 587.985 17.08V24.76C587.985 24.92 587.905 25 587.745 25H586.865C586.705 25 586.625 24.92 586.625 24.76V18.92H586.545L582.705 24.76C582.652 24.8453 582.599 24.9093 582.545 24.952C582.492 24.984 582.385 25 582.225 25H581.265C581.105 25 581.025 24.92 581.025 24.76V17.08C581.025 16.92 581.105 16.84 581.265 16.84H582.145C582.305 16.84 582.385 16.92 582.385 17.08V22.92H582.465L586.305 17.08C586.359 16.9947 586.412 16.936 586.465 16.904C586.519 16.8613 586.625 16.84 586.785 16.84H587.745Z" fill="#7E7E82"/>
<path d="M628.575 16.44C628.575 14.5733 629.535 13.64 631.455 13.64H635.135C637.055 13.64 638.015 14.5733 638.015 16.44V17.08C638.015 17.24 637.935 17.32 637.775 17.32H636.735C636.575 17.32 636.495 17.24 636.495 17.08V16.44C636.495 15.5333 636.041 15.08 635.135 15.08H631.455C630.548 15.08 630.095 15.5333 630.095 16.44V22.36C630.095 23.2667 630.548 23.72 631.455 23.72H635.135C636.041 23.72 636.495 23.2667 636.495 22.36V21.72C636.495 21.56 636.575 21.48 636.735 21.48H637.775C637.935 21.48 638.015 21.56 638.015 21.72V22.36C638.015 24.2267 637.055 25.16 635.135 25.16H631.455C629.535 25.16 628.575 24.2267 628.575 22.36V16.44ZM645.895 25C645.735 25 645.655 24.92 645.655 24.76V18.12H641.575V24.76C641.575 24.92 641.495 25 641.335 25H640.455C640.295 25 640.215 24.92 640.215 24.76V17.08C640.215 16.92 640.295 16.84 640.455 16.84H646.775C646.935 16.84 647.015 16.92 647.015 17.08V24.76C647.015 24.92 646.935 25 646.775 25H645.895ZM654.894 20.2V19.16C654.894 18.7973 654.782 18.5093 654.558 18.296C654.345 18.072 654.057 17.96 653.694 17.96H651.774C651.411 17.96 651.118 18.072 650.894 18.296C650.681 18.5093 650.574 18.7973 650.574 19.16V20.2H654.894ZM650.574 21.48V22.68C650.574 23.0427 650.681 23.336 650.894 23.56C651.118 23.7733 651.411 23.88 651.774 23.88H653.694C654.057 23.88 654.345 23.7733 654.558 23.56C654.782 23.336 654.894 23.0427 654.894 22.68V22.6C654.894 22.44 654.974 22.36 655.134 22.36H656.014C656.174 22.36 656.254 22.44 656.254 22.6V22.68C656.254 23.48 656.035 24.0933 655.598 24.52C655.171 24.9467 654.537 25.16 653.694 25.16H651.774C650.931 25.16 650.291 24.9467 649.854 24.52C649.427 24.0933 649.214 23.48 649.214 22.68V19.16C649.214 18.36 649.427 17.7467 649.854 17.32C650.291 16.8933 650.931 16.68 651.774 16.68H653.694C654.537 16.68 655.171 16.8933 655.598 17.32C656.035 17.7467 656.254 18.36 656.254 19.16V21.24C656.254 21.4 656.174 21.48 656.014 21.48H650.574ZM658.695 25C658.535 25 658.455 24.92 658.455 24.76V17.08C658.455 16.92 658.535 16.84 658.695 16.84H659.575C659.735 16.84 659.815 16.92 659.815 17.08V23.72H663.735V17.08C663.735 16.92 663.815 16.84 663.975 16.84H664.855C665.015 16.84 665.095 16.92 665.095 17.08V23.96L666.535 25.56C666.578 25.6027 666.599 25.656 666.599 25.72C666.599 25.784 666.578 25.8373 666.535 25.88L665.815 26.52C665.698 26.616 665.591 26.616 665.495 26.52L664.135 25H658.695ZM674.397 16.84C674.557 16.84 674.637 16.92 674.637 17.08V24.76C674.637 24.92 674.557 25 674.397 25H673.517C673.357 25 673.277 24.92 673.277 24.76V18.92H673.197L669.357 24.76C669.304 24.8453 669.25 24.9093 669.197 24.952C669.144 24.984 669.037 25 668.877 25H667.917C667.757 25 667.677 24.92 667.677 24.76V17.08C667.677 16.92 667.757 16.84 667.917 16.84H668.797C668.957 16.84 669.037 16.92 669.037 17.08V22.92H669.117L672.957 17.08C673.01 16.9947 673.064 16.936 673.117 16.904C673.17 16.8613 673.277 16.84 673.437 16.84H674.397ZM676.673 22.52C676.673 20.9733 677.473 20.2 679.073 20.2H682.033V19.16C682.033 18.7973 681.921 18.5093 681.697 18.296C681.483 18.072 681.195 17.96 680.833 17.96H679.713C679.35 17.96 679.057 18.072 678.833 18.296C678.619 18.5093 678.513 18.7973 678.513 19.16C678.513 19.32 678.433 19.4 678.273 19.4H677.393C677.233 19.4 677.153 19.32 677.153 19.16C677.153 18.36 677.366 17.7467 677.793 17.32C678.23 16.8933 678.87 16.68 679.713 16.68H680.833C681.675 16.68 682.31 16.8933 682.737 17.32C683.174 17.7467 683.393 18.36 683.393 19.16V24.76C683.393 24.92 683.313 25 683.153 25H682.273C682.113 25 682.033 24.92 682.033 24.76V24.2H681.953C681.867 24.3813 681.745 24.5413 681.585 24.68C681.446 24.7973 681.265 24.904 681.041 25C680.817 25.1067 680.534 25.16 680.193 25.16H679.073C677.473 25.16 676.673 24.3867 676.673 22.84V22.52ZM678.033 22.84C678.033 23.16 678.123 23.416 678.305 23.608C678.497 23.7893 678.753 23.88 679.073 23.88H680.353C680.833 23.88 681.233 23.72 681.553 23.4C681.873 23.08 682.033 22.68 682.033 22.2V21.48H679.073C678.753 21.48 678.497 21.576 678.305 21.768C678.123 21.9493 678.033 22.2 678.033 22.52V22.84ZM687.426 22.84C687.266 23.64 686.994 24.2267 686.61 24.6C686.226 24.9733 685.671 25.16 684.946 25.16H684.706C684.546 25.16 684.466 25.08 684.466 24.92V24.12C684.466 23.96 684.546 23.88 684.706 23.88H684.946C685.223 23.88 685.458 23.7893 685.65 23.608C685.852 23.4267 685.991 23.1707 686.066 22.84L687.266 17.08C687.298 16.92 687.431 16.84 687.666 16.84H692.146C692.306 16.84 692.386 16.92 692.386 17.08V24.76C692.386 24.92 692.306 25 692.146 25H691.266C691.106 25 691.026 24.92 691.026 24.76V18.12H688.386L687.426 22.84ZM698.909 23.72C699.229 23.72 699.48 23.6293 699.661 23.448C699.853 23.256 699.949 23 699.949 22.68V21.88C699.949 21.56 699.853 21.3093 699.661 21.128C699.48 20.936 699.229 20.84 698.909 20.84H696.109V23.72H698.909ZM694.989 25C694.829 25 694.749 24.92 694.749 24.76V17.08C694.749 16.92 694.829 16.84 694.989 16.84H695.869C696.029 16.84 696.109 16.92 696.109 17.08V19.56H698.909C700.509 19.56 701.309 20.3333 701.309 21.88V22.68C701.309 24.2267 700.509 25 698.909 25H694.989ZM704.706 21.48V24.76C704.706 24.92 704.626 25 704.466 25H703.586C703.426 25 703.346 24.92 703.346 24.76V17.08C703.346 16.92 703.426 16.84 703.586 16.84H704.466C704.626 16.84 704.706 16.92 704.706 17.08V20.28H708.786V17.08C708.786 16.92 708.866 16.84 709.026 16.84H709.906C710.066 16.84 710.146 16.92 710.146 17.08V24.76C710.146 24.92 710.066 25 709.906 25H709.026C708.866 25 708.786 24.92 708.786 24.76V21.48H704.706ZM716.345 23.72C716.665 23.72 716.916 23.6293 717.097 23.448C717.289 23.256 717.385 23 717.385 22.68V21.88C717.385 21.56 717.289 21.3093 717.097 21.128C716.916 20.936 716.665 20.84 716.345 20.84H713.865V23.72H716.345ZM712.745 25C712.585 25 712.505 24.92 712.505 24.76V17.08C712.505 16.92 712.585 16.84 712.745 16.84H713.625C713.785 16.84 713.865 16.92 713.865 17.08V19.56H716.345C717.945 19.56 718.745 20.3333 718.745 21.88V22.68C718.745 24.2267 717.945 25 716.345 25H712.745ZM721.465 24.76C721.465 24.92 721.385 25 721.225 25H720.345C720.185 25 720.105 24.92 720.105 24.76V17.08C720.105 16.92 720.185 16.84 720.345 16.84H721.225C721.385 16.84 721.465 16.92 721.465 17.08V24.76ZM729.341 20.2V19.16C729.341 18.7973 729.229 18.5093 729.005 18.296C728.791 18.072 728.503 17.96 728.141 17.96H726.221C725.858 17.96 725.565 18.072 725.341 18.296C725.127 18.5093 725.021 18.7973 725.021 19.16V20.2H729.341ZM725.021 21.48V22.68C725.021 23.0427 725.127 23.336 725.341 23.56C725.565 23.7733 725.858 23.88 726.221 23.88H728.141C728.503 23.88 728.791 23.7733 729.005 23.56C729.229 23.336 729.341 23.0427 729.341 22.68V22.6C729.341 22.44 729.421 22.36 729.581 22.36H730.461C730.621 22.36 730.701 22.44 730.701 22.6V22.68C730.701 23.48 730.482 24.0933 730.045 24.52C729.618 24.9467 728.983 25.16 728.141 25.16H726.221C725.378 25.16 724.738 24.9467 724.301 24.52C723.874 24.0933 723.661 23.48 723.661 22.68V19.16C723.661 18.36 723.874 17.7467 724.301 17.32C724.738 16.8933 725.378 16.68 726.221 16.68H728.141C728.983 16.68 729.618 16.8933 730.045 17.32C730.482 17.7467 730.701 18.36 730.701 19.16V21.24C730.701 21.4 730.621 21.48 730.461 21.48H725.021ZM736.145 25C735.985 25 735.905 24.92 735.905 24.76V17.08C735.905 16.92 735.985 16.84 736.145 16.84H737.025C737.185 16.84 737.265 16.92 737.265 17.08V23.72H741.185V17.08C741.185 16.92 741.265 16.84 741.425 16.84H742.305C742.465 16.84 742.545 16.92 742.545 17.08V23.96L743.985 25.56C744.028 25.6027 744.049 25.656 744.049 25.72C744.049 25.784 744.028 25.8373 743.985 25.88L743.265 26.52C743.148 26.616 743.041 26.616 742.945 26.52L741.585 25H736.145ZM750.647 20.2V19.16C750.647 18.7973 750.535 18.5093 750.311 18.296C750.098 18.072 749.81 17.96 749.447 17.96H747.527C747.164 17.96 746.871 18.072 746.647 18.296C746.434 18.5093 746.327 18.7973 746.327 19.16V20.2H750.647ZM746.327 21.48V22.68C746.327 23.0427 746.434 23.336 746.647 23.56C746.871 23.7733 747.164 23.88 747.527 23.88H749.447C749.81 23.88 750.098 23.7733 750.311 23.56C750.535 23.336 750.647 23.0427 750.647 22.68V22.6C750.647 22.44 750.727 22.36 750.887 22.36H751.767C751.927 22.36 752.007 22.44 752.007 22.6V22.68C752.007 23.48 751.788 24.0933 751.351 24.52C750.924 24.9467 750.29 25.16 749.447 25.16H747.527C746.684 25.16 746.044 24.9467 745.607 24.52C745.18 24.0933 744.967 23.48 744.967 22.68V19.16C744.967 18.36 745.18 17.7467 745.607 17.32C746.044 16.8933 746.684 16.68 747.527 16.68H749.447C750.29 16.68 750.924 16.8933 751.351 17.32C751.788 17.7467 752.007 18.36 752.007 19.16V21.24C752.007 21.4 751.927 21.48 751.767 21.48H746.327ZM755.568 21.48V24.76C755.568 24.92 755.488 25 755.328 25H754.448C754.288 25 754.208 24.92 754.208 24.76V17.08C754.208 16.92 754.288 16.84 754.448 16.84H755.328C755.488 16.84 755.568 16.92 755.568 17.08V20.28H759.648V17.08C759.648 16.92 759.728 16.84 759.888 16.84H760.768C760.928 16.84 761.008 16.92 761.008 17.08V24.76C761.008 24.92 760.928 25 760.768 25H759.888C759.728 25 759.648 24.92 759.648 24.76V21.48H755.568ZM767.208 23.72C767.528 23.72 767.778 23.6293 767.96 23.448C768.152 23.256 768.248 23 768.248 22.68V21.88C768.248 21.56 768.152 21.3093 767.96 21.128C767.778 20.936 767.528 20.84 767.208 20.84H764.728V23.72H767.208ZM763.608 25C763.448 25 763.368 24.92 763.368 24.76V17.08C763.368 16.92 763.448 16.84 763.608 16.84H764.488C764.648 16.84 764.728 16.92 764.728 17.08V19.56H767.208C768.808 19.56 769.608 20.3333 769.608 21.88V22.68C769.608 24.2267 768.808 25 767.208 25H763.608ZM772.328 24.76C772.328 24.92 772.248 25 772.088 25H771.208C771.048 25 770.968 24.92 770.968 24.76V17.08C770.968 16.92 771.048 16.84 771.208 16.84H772.088C772.248 16.84 772.328 16.92 772.328 17.08V24.76Z" fill="#7E7E82"/>
<rect x="725" width="19.3123" height="40" fill="url(#paint0_linear_1370_515)"/>
<defs>
<linearGradient id="paint0_linear_1370_515" x1="741.067" y1="3.36103" x2="725" y2="3.36103" gradientUnits="userSpaceOnUse">
<stop offset="0.00036951" stop-color="#F8F8F8"/>
<stop offset="1" stop-color="#F8F8F8" stop-opacity="0.01"/>
</linearGradient>
</defs>
</svg>
