<svg width="168" height="40" viewBox="0 0 168 40" fill="none" xmlns="http://www.w3.org/2000/svg">
<path d="M1.44 16.44C1.44 14.5733 2.4 13.64 4.32 13.64H8C9.92 13.64 10.88 14.5733 10.88 16.44V17.08C10.88 17.24 10.8 17.32 10.64 17.32H9.6C9.44 17.32 9.36 17.24 9.36 17.08V16.44C9.36 15.5333 8.90667 15.08 8 15.08H4.32C3.41333 15.08 2.96 15.5333 2.96 16.44V22.36C2.96 23.2667 3.41333 23.72 4.32 23.72H8C8.90667 23.72 9.36 23.2667 9.36 22.36V21.72C9.36 21.56 9.44 21.48 9.6 21.48H10.64C10.8 21.48 10.88 21.56 10.88 21.72V22.36C10.88 24.2267 9.92 25.16 8 25.16H4.32C2.4 25.16 1.44 24.2267 1.44 22.36V16.44ZM14.92 25C14.76 25 14.68 24.92 14.68 24.76V18.12H12.2C12.04 18.12 11.96 18.04 11.96 17.88V17.08C11.96 16.92 12.04 16.84 12.2 16.84H18.52C18.68 16.84 18.76 16.92 18.76 17.08V17.88C18.76 18.04 18.68 18.12 18.52 18.12H16.04V24.76C16.04 24.92 15.96 25 15.8 25H14.92ZM19.685 22.52C19.685 20.9733 20.485 20.2 22.085 20.2H25.045V19.16C25.045 18.7973 24.933 18.5093 24.709 18.296C24.4957 18.072 24.2077 17.96 23.845 17.96H22.725C22.3623 17.96 22.069 18.072 21.845 18.296C21.6317 18.5093 21.525 18.7973 21.525 19.16C21.525 19.32 21.445 19.4 21.285 19.4H20.405C20.245 19.4 20.165 19.32 20.165 19.16C20.165 18.36 20.3783 17.7467 20.805 17.32C21.2423 16.8933 21.8823 16.68 22.725 16.68H23.845C24.6877 16.68 25.3223 16.8933 25.749 17.32C26.1863 17.7467 26.405 18.36 26.405 19.16V24.76C26.405 24.92 26.325 25 26.165 25H25.285C25.125 25 25.045 24.92 25.045 24.76V24.2H24.965C24.8797 24.3813 24.757 24.5413 24.597 24.68C24.4583 24.7973 24.277 24.904 24.053 25C23.829 25.1067 23.5463 25.16 23.205 25.16H22.085C20.485 25.16 19.685 24.3867 19.685 22.84V22.52ZM21.045 22.84C21.045 23.16 21.1357 23.416 21.317 23.608C21.509 23.7893 21.765 23.88 22.085 23.88H23.365C23.845 23.88 24.245 23.72 24.565 23.4C24.885 23.08 25.045 22.68 25.045 22.2V21.48H22.085C21.765 21.48 21.509 21.576 21.317 21.768C21.1357 21.9493 21.045 22.2 21.045 22.52V22.84ZM30.5981 25C30.4381 25 30.3581 24.92 30.3581 24.76V18.12H27.8781C27.7181 18.12 27.6381 18.04 27.6381 17.88V17.08C27.6381 16.92 27.7181 16.84 27.8781 16.84H34.1981C34.3581 16.84 34.4381 16.92 34.4381 17.08V17.88C34.4381 18.04 34.3581 18.12 34.1981 18.12H31.7181V24.76C31.7181 24.92 31.6381 25 31.4781 25H30.5981ZM40.7551 17.08C40.7871 16.9947 40.8298 16.936 40.8831 16.904C40.9471 16.8613 41.0378 16.84 41.1551 16.84H42.1151C42.2858 16.84 42.3391 16.92 42.2751 17.08L39.1551 25C38.9311 25.5653 38.7125 26.04 38.4991 26.424C38.2858 26.808 38.0565 27.1173 37.8111 27.352C37.5658 27.5973 37.2991 27.7733 37.0111 27.88C36.7231 27.9867 36.3978 28.04 36.0351 28.04H35.7151C35.5551 28.04 35.4751 27.96 35.4751 27.8V27C35.4751 26.84 35.5551 26.76 35.7151 26.76H36.0351C36.4405 26.76 36.7711 26.6267 37.0271 26.36C37.2938 26.0933 37.5498 25.64 37.7951 25L34.6751 17.08C34.6111 16.92 34.6645 16.84 34.8351 16.84H35.7951C35.9125 16.84 35.9978 16.8613 36.0511 16.904C36.1151 16.936 36.1631 16.9947 36.1951 17.08L38.4351 23.08H38.5151L40.7551 17.08ZM44.8238 22.68C44.8238 23.0427 44.9304 23.336 45.1438 23.56C45.3678 23.7733 45.6611 23.88 46.0238 23.88H47.8638C48.2264 23.88 48.5144 23.7733 48.7278 23.56C48.9518 23.336 49.0638 23.0427 49.0638 22.68V22.28C49.0638 22.12 49.1438 22.04 49.3038 22.04H50.1838C50.3438 22.04 50.4237 22.12 50.4237 22.28V22.68C50.4237 23.48 50.2051 24.0933 49.7678 24.52C49.3411 24.9467 48.7064 25.16 47.8638 25.16H46.0238C45.1811 25.16 44.5411 24.9467 44.1038 24.52C43.6771 24.0933 43.4638 23.48 43.4638 22.68V19.16C43.4638 18.36 43.6771 17.7467 44.1038 17.32C44.5411 16.8933 45.1811 16.68 46.0238 16.68H47.8638C48.7064 16.68 49.3411 16.8933 49.7678 17.32C50.2051 17.7467 50.4237 18.36 50.4237 19.16V19.56C50.4237 19.72 50.3438 19.8 50.1838 19.8H49.3038C49.1438 19.8 49.0638 19.72 49.0638 19.56V19.16C49.0638 18.7973 48.9518 18.5093 48.7278 18.296C48.5144 18.072 48.2264 17.96 47.8638 17.96H46.0238C45.6611 17.96 45.3678 18.072 45.1438 18.296C44.9304 18.5093 44.8238 18.7973 44.8238 19.16V22.68ZM59.8737 23.72C60.2364 23.72 60.5244 23.6133 60.7377 23.4C60.9617 23.176 61.0737 22.8827 61.0737 22.52V19.16C61.0737 18.7973 60.9617 18.5093 60.7377 18.296C60.5244 18.072 60.2364 17.96 59.8737 17.96H58.5137C58.0337 17.96 57.6337 18.12 57.3137 18.44C56.9937 18.76 56.8337 19.16 56.8337 19.64V23.72H59.8737ZM56.8337 25V27.8C56.8337 27.96 56.7537 28.04 56.5937 28.04H55.7137C55.5537 28.04 55.4737 27.96 55.4737 27.8V17.08C55.4737 16.92 55.5537 16.84 55.7137 16.84H56.5937C56.7537 16.84 56.8337 16.92 56.8337 17.08V17.64H56.9137C56.9991 17.4587 57.1217 17.2987 57.2817 17.16C57.4204 17.0427 57.6017 16.936 57.8257 16.84C58.0497 16.7333 58.3324 16.68 58.6737 16.68H59.8737C60.7164 16.68 61.3511 16.8933 61.7777 17.32C62.2151 17.7467 62.4337 18.36 62.4337 19.16V22.52C62.4337 23.32 62.2151 23.9333 61.7777 24.36C61.3511 24.7867 60.7164 25 59.8737 25H56.8337ZM70.1531 20.2V19.16C70.1531 18.7973 70.0411 18.5093 69.8171 18.296C69.6038 18.072 69.3158 17.96 68.9531 17.96H67.0331C66.6705 17.96 66.3771 18.072 66.1531 18.296C65.9398 18.5093 65.8331 18.7973 65.8331 19.16V20.2H70.1531ZM65.8331 21.48V22.68C65.8331 23.0427 65.9398 23.336 66.1531 23.56C66.3771 23.7733 66.6705 23.88 67.0331 23.88H68.9531C69.3158 23.88 69.6038 23.7733 69.8171 23.56C70.0411 23.336 70.1531 23.0427 70.1531 22.68V22.6C70.1531 22.44 70.2331 22.36 70.3931 22.36H71.2731C71.4331 22.36 71.5131 22.44 71.5131 22.6V22.68C71.5131 23.48 71.2945 24.0933 70.8571 24.52C70.4305 24.9467 69.7958 25.16 68.9531 25.16H67.0331C66.1905 25.16 65.5505 24.9467 65.1131 24.52C64.6865 24.0933 64.4731 23.48 64.4731 22.68V19.16C64.4731 18.36 64.6865 17.7467 65.1131 17.32C65.5505 16.8933 66.1905 16.68 67.0331 16.68H68.9531C69.7958 16.68 70.4305 16.8933 70.8571 17.32C71.2945 17.7467 71.5131 18.36 71.5131 19.16V21.24C71.5131 21.4 71.4331 21.48 71.2731 21.48H65.8331ZM78.3544 23.24L81.2344 17.08C81.277 16.9947 81.325 16.936 81.3784 16.904C81.4424 16.8613 81.5544 16.84 81.7144 16.84H82.6744C82.8344 16.84 82.9144 16.92 82.9144 17.08V24.76C82.9144 24.92 82.8344 25 82.6744 25H81.7944C81.6344 25 81.5544 24.92 81.5544 24.76V19.48H81.4744L78.9944 24.76C78.9517 24.8453 78.8984 24.9093 78.8344 24.952C78.781 24.984 78.6744 25 78.5144 25H78.1144C77.9544 25 77.8424 24.984 77.7784 24.952C77.725 24.9093 77.677 24.8453 77.6344 24.76L75.1544 19.48H75.0744V24.76C75.0744 24.92 74.9944 25 74.8344 25H73.9544C73.7944 25 73.7144 24.92 73.7144 24.76V17.08C73.7144 16.92 73.7944 16.84 73.9544 16.84H74.9144C75.0744 16.84 75.181 16.8613 75.2344 16.904C75.2984 16.936 75.3517 16.9947 75.3944 17.08L78.2744 23.24H78.3544ZM90.88 19.16C90.88 18.7973 90.768 18.5093 90.544 18.296C90.3307 18.072 90.0427 17.96 89.68 17.96H87.68C87.3173 17.96 87.024 18.072 86.8 18.296C86.5867 18.5093 86.48 18.7973 86.48 19.16V22.68C86.48 23.0427 86.5867 23.336 86.8 23.56C87.024 23.7733 87.3173 23.88 87.68 23.88H89.68C90.0427 23.88 90.3307 23.7733 90.544 23.56C90.768 23.336 90.88 23.0427 90.88 22.68V19.16ZM92.24 22.68C92.24 23.48 92.0213 24.0933 91.584 24.52C91.1573 24.9467 90.5227 25.16 89.68 25.16H87.68C86.8373 25.16 86.1973 24.9467 85.76 24.52C85.3333 24.0933 85.12 23.48 85.12 22.68V19.16C85.12 18.36 85.3333 17.7467 85.76 17.32C86.1973 16.8933 86.8373 16.68 87.68 16.68H89.68C90.5227 16.68 91.1573 16.8933 91.584 17.32C92.0213 17.7467 92.24 18.36 92.24 19.16V22.68ZM95.7994 21.48V24.76C95.7994 24.92 95.7194 25 95.5594 25H94.6794C94.5194 25 94.4394 24.92 94.4394 24.76V17.08C94.4394 16.92 94.5194 16.84 94.6794 16.84H95.5594C95.7194 16.84 95.7994 16.92 95.7994 17.08V20.28H99.8794V17.08C99.8794 16.92 99.9594 16.84 100.119 16.84H100.999C101.159 16.84 101.239 16.92 101.239 17.08V24.76C101.239 24.92 101.159 25 100.999 25H100.119C99.9594 25 99.8794 24.92 99.8794 24.76V21.48H95.7994ZM105.439 25C105.279 25 105.199 24.92 105.199 24.76V18.12H102.719C102.559 18.12 102.479 18.04 102.479 17.88V17.08C102.479 16.92 102.559 16.84 102.719 16.84H109.039C109.199 16.84 109.279 16.92 109.279 17.08V17.88C109.279 18.04 109.199 18.12 109.039 18.12H106.559V24.76C106.559 24.92 106.479 25 106.319 25H105.439ZM110.204 22.52C110.204 20.9733 111.004 20.2 112.604 20.2H115.564V19.16C115.564 18.7973 115.452 18.5093 115.228 18.296C115.014 18.072 114.726 17.96 114.364 17.96H113.244C112.881 17.96 112.588 18.072 112.364 18.296C112.15 18.5093 112.044 18.7973 112.044 19.16C112.044 19.32 111.964 19.4 111.804 19.4H110.924C110.764 19.4 110.684 19.32 110.684 19.16C110.684 18.36 110.897 17.7467 111.324 17.32C111.761 16.8933 112.401 16.68 113.244 16.68H114.364C115.206 16.68 115.841 16.8933 116.268 17.32C116.705 17.7467 116.924 18.36 116.924 19.16V24.76C116.924 24.92 116.844 25 116.684 25H115.804C115.644 25 115.564 24.92 115.564 24.76V24.2H115.484C115.398 24.3813 115.276 24.5413 115.116 24.68C114.977 24.7973 114.796 24.904 114.572 25C114.348 25.1067 114.065 25.16 113.724 25.16H112.604C111.004 25.16 110.204 24.3867 110.204 22.84V22.52ZM111.564 22.84C111.564 23.16 111.654 23.416 111.836 23.608C112.028 23.7893 112.284 23.88 112.604 23.88H113.884C114.364 23.88 114.764 23.72 115.084 23.4C115.404 23.08 115.564 22.68 115.564 22.2V21.48H112.604C112.284 21.48 112.028 21.576 111.836 21.768C111.654 21.9493 111.564 22.2 111.564 22.52V22.84Z" fill="#1B1C21"/>
<rect x="128" width="40" height="40" rx="20" fill="#FF3E79"/>
<path d="M155 10C155.552 10 156 10.4477 156 11V28.5C155.172 28.5 154.5 29.1716 154.5 30H153.5C153.5 29.1716 152.828 28.5 152 28.5C151.172 28.5 150.5 29.1716 150.5 30H149.5C149.5 29.1716 148.828 28.5 148 28.5C147.172 28.5 146.5 29.1716 146.5 30H145.5C145.5 29.1716 144.828 28.5 144 28.5C143.172 28.5 142.5 29.1716 142.5 30H141.5C141.5 29.1716 140.828 28.5 140 28.5V11C140 10.4477 140.448 10 141 10H155ZM147.854 13.8799C144.949 13.42 142.495 15.826 142.859 18.7109C143.089 20.5322 144.528 22.0473 146.33 22.3828C147.471 22.5935 148.553 22.3439 149.416 21.7881L151.525 23.8975C151.899 24.2711 152.513 24.2711 152.896 23.8877C153.27 23.5139 153.27 22.9002 152.896 22.5264L150.787 20.4268C151.324 19.5737 151.582 18.5483 151.4 17.4365C151.103 15.644 149.656 14.1675 147.854 13.8799ZM147.059 15.7061C148.357 15.7061 149.412 16.7598 149.412 18.0586C149.412 19.3574 148.357 20.4121 147.059 20.4121C145.76 20.412 144.706 19.3573 144.706 18.0586C144.706 16.7599 145.76 15.7062 147.059 15.7061Z" fill="white"/>
</svg>
